<svg width="125" height="114" viewBox="0 0 125 114" fill="none" xmlns="http://www.w3.org/2000/svg">
<path d="M43.2232 25.3073L42.2463 21.4321H42.2302L41.2695 25.3073H39.9885L38.4653 19.6075H39.7302L40.6397 23.4827H40.6559L41.6543 19.6075H42.8384L43.8206 23.5339H43.8368L44.776 19.6075H46.0166L44.4719 25.3073H43.2151H43.2232Z" fill="url(#paint0_linear_458_98545)"/>
<path d="M47.884 19.6075V21.7927H50.2145V19.6075H51.4793V25.3073H50.2145V22.8476H47.884V25.3073H46.6191V19.6075H47.884Z" fill="url(#paint1_linear_458_98545)"/>
<path d="M55.5057 19.6075L57.6559 25.3073H56.3426L55.9094 24.0371H53.7592L53.3098 25.3073H52.0396L54.214 19.6075H55.5111H55.5057ZM55.5784 23.106L54.8545 21.0123H54.8383L54.0902 23.106H55.5837H55.5784Z" fill="url(#paint2_linear_458_98545)"/>
<path d="M56.9207 20.6625V19.6075H61.6328V20.6625H59.9078V25.3073H58.643V20.6625H56.918H56.9207Z" fill="url(#paint3_linear_458_98545)"/>
<path d="M66.5122 24.874C66.0789 25.2508 65.4734 25.4365 64.7092 25.4365C63.9449 25.4365 63.3286 25.2508 62.9007 24.8794C62.4729 24.508 62.2603 23.9348 62.2603 23.1598V19.6156H63.5251V23.1598C63.5251 23.3159 63.5412 23.4639 63.5654 23.6146C63.5924 23.7653 63.6489 23.8945 63.735 24.0075C63.8238 24.1205 63.9422 24.2147 64.0902 24.2874C64.2409 24.36 64.4454 24.395 64.7038 24.395C65.1532 24.395 65.4681 24.2981 65.6403 24.0963C65.8098 23.8945 65.8986 23.585 65.8986 23.1598V19.6156H67.1635V23.1598C67.1635 23.9294 66.9455 24.5027 66.5122 24.8794V24.874Z" fill="url(#paint4_linear_458_98545)"/>
<path d="M69.0065 19.6075L71.4097 23.4316H71.4258V19.6075H72.6099V25.3073H71.3451L68.9527 21.494H68.9365V25.3073H67.7524V19.6075H69.0092H69.0065Z" fill="url(#paint5_linear_458_98545)"/>
<path d="M74.4645 19.6075V25.3073H73.1997V19.6075H74.4645Z" fill="url(#paint6_linear_458_98545)"/>
<path d="M75.3199 20.657C75.4141 20.4202 75.5459 20.2129 75.7128 20.038C75.8769 19.8631 76.0842 19.7285 76.3264 19.629C76.5632 19.5321 76.8323 19.4783 77.1283 19.4783C77.5105 19.4783 77.8253 19.5294 78.0837 19.6344C78.3366 19.7366 78.5438 19.8658 78.6972 20.0219C78.8533 20.178 78.9663 20.3421 79.0336 20.5224C79.1009 20.6973 79.1305 20.8696 79.1305 21.0176C79.1305 21.2706 79.0982 21.4831 79.0336 21.6473C78.9663 21.8115 78.8829 21.9514 78.786 22.0698C78.6892 22.1882 78.5734 22.2878 78.455 22.3685C78.3366 22.4519 78.2182 22.5327 78.1133 22.6161C78.0056 22.6995 77.9114 22.791 77.828 22.9014C77.7446 23.009 77.6934 23.1382 77.6719 23.2996V23.6037H76.582V23.2485C76.5982 23.0225 76.6439 22.8287 76.7166 22.6753C76.7892 22.5192 76.8727 22.3901 76.9695 22.2824C77.0664 22.1748 77.166 22.0806 77.2736 21.9972C77.3813 21.9137 77.4808 21.8357 77.5723 21.7603C77.6665 21.6769 77.7365 21.5962 77.7957 21.4966C77.8522 21.3997 77.8791 21.2786 77.8737 21.136C77.8737 20.8938 77.8119 20.7135 77.6934 20.5924C77.575 20.474 77.4028 20.4175 77.1875 20.4175C77.0422 20.4175 76.9184 20.4444 76.8108 20.5009C76.7031 20.5574 76.6197 20.6301 76.5524 20.7243C76.4851 20.8184 76.434 20.9261 76.4017 21.0499C76.3694 21.1737 76.356 21.3082 76.356 21.4535H75.1719C75.1773 21.1629 75.2284 20.9019 75.3226 20.6624L75.3199 20.657ZM77.7338 24.0774V25.3072H76.469V24.0774H77.7338Z" fill="url(#paint7_linear_458_98545)"/>
<path d="M40.3973 32.9662C40.4861 33.1357 40.6045 33.2757 40.7525 33.386C40.9032 33.4937 41.0728 33.5717 41.2746 33.6228C41.4765 33.674 41.6837 33.7009 41.8936 33.7009C42.0389 33.7009 42.1923 33.6901 42.3591 33.6659C42.5233 33.639 42.6794 33.5932 42.8247 33.526C42.97 33.4587 43.0884 33.3618 43.1853 33.2407C43.2822 33.1223 43.3306 32.9662 43.3306 32.7805C43.3306 32.5787 43.2687 32.4199 43.1396 32.2961C43.0104 32.1723 42.8462 32.0701 42.639 31.9866C42.4318 31.9032 42.2004 31.8306 41.9366 31.7687C41.6729 31.7068 41.4092 31.6395 41.1401 31.5614C40.8656 31.4942 40.5965 31.4054 40.3327 31.3085C40.069 31.2116 39.8376 31.0824 39.6303 30.921C39.4231 30.7595 39.259 30.5657 39.1298 30.3262C39.0006 30.0894 38.9387 29.7988 38.9387 29.4624C38.9387 29.0856 39.0222 28.7546 39.1809 28.4747C39.3424 28.1949 39.5523 27.9634 39.816 27.7777C40.0798 27.5921 40.3731 27.4521 40.7041 27.3633C41.0351 27.2745 41.3661 27.2288 41.6971 27.2288C42.0846 27.2288 42.4506 27.2691 42.8086 27.3579C43.1638 27.4467 43.4813 27.584 43.7531 27.7777C44.0276 27.9688 44.2483 28.2164 44.4098 28.5178C44.5712 28.8165 44.652 29.1798 44.652 29.6077H43.0804C43.0642 29.3843 43.0185 29.204 42.9404 29.0587C42.8624 28.9134 42.7547 28.8004 42.6256 28.7169C42.4964 28.6335 42.3457 28.577 42.1761 28.542C42.0066 28.507 41.8236 28.4909 41.6245 28.4909C41.4953 28.4909 41.3607 28.507 41.2316 28.5313C41.1024 28.5582 40.984 28.6093 40.8763 28.6766C40.7687 28.7439 40.6799 28.8327 40.6126 28.9349C40.5453 29.0372 40.5103 29.1664 40.5103 29.3278C40.5103 29.4731 40.5373 29.5916 40.5938 29.6804C40.6503 29.7692 40.7579 29.8499 40.9194 29.9279C41.0809 30.006 41.3069 30.0786 41.5922 30.154C41.8774 30.232 42.2542 30.3235 42.7144 30.4446C42.8543 30.4715 43.0454 30.5227 43.2876 30.5953C43.5298 30.668 43.772 30.781 44.0169 30.9425C44.2591 31.104 44.4663 31.3139 44.6412 31.5776C44.8161 31.8413 44.9049 32.1831 44.9049 32.5948C44.9049 32.9312 44.8376 33.2461 44.7085 33.534C44.5793 33.8247 44.3829 34.0723 44.1245 34.2822C43.8662 34.4948 43.5459 34.6535 43.1638 34.7719C42.7816 34.8904 42.3376 34.9469 41.8371 34.9469C41.428 34.9469 41.0351 34.8957 40.653 34.7962C40.2708 34.6993 39.9344 34.5378 39.6411 34.3252C39.3478 34.1126 39.1137 33.8408 38.9441 33.5098C38.7746 33.1788 38.6912 32.7859 38.6965 32.3311H40.2681C40.2681 32.5787 40.3139 32.7913 40.4027 32.9608L40.3973 32.9662Z" fill="url(#paint8_linear_458_98545)"/>
<path d="M45.1096 28.7708V27.4064H51.1539V28.7708H48.9418V34.7854H47.319V28.7708H45.1069H45.1096Z" fill="url(#paint9_linear_458_98545)"/>
<path d="M57.365 34.2203C56.808 34.7047 56.0383 34.9496 55.0507 34.9496C54.063 34.9496 53.2772 34.7074 52.7309 34.2256C52.182 33.7439 51.9102 33.0012 51.9102 31.9947V27.4064H53.5329V31.9947C53.5329 32.1965 53.549 32.393 53.584 32.5841C53.619 32.7751 53.6917 32.9447 53.802 33.0954C53.9097 33.2461 54.0657 33.3645 54.2622 33.456C54.4586 33.5502 54.7224 33.5959 55.0534 33.5959C55.632 33.5959 56.0302 33.4668 56.2509 33.2084C56.4743 32.9501 56.5819 32.5464 56.5819 31.9947V27.4064H58.2047V31.9947C58.2047 32.9931 57.9248 33.7359 57.3677 34.223L57.365 34.2203Z" fill="url(#paint10_linear_458_98545)"/>
<path d="M62.2226 27.4064C62.699 27.4064 63.143 27.4844 63.5494 27.6324C63.9584 27.7831 64.3136 28.0092 64.615 28.3133C64.9138 28.6174 65.1479 28.9941 65.3174 29.4489C65.487 29.9037 65.5704 30.4366 65.5704 31.0501C65.5704 31.5884 65.5031 32.0835 65.3632 32.5383C65.2232 32.9931 65.016 33.386 64.7388 33.717C64.459 34.048 64.1145 34.3064 63.6947 34.4975C63.2749 34.6885 62.7851 34.7827 62.2226 34.7827H59.0391V27.4037H62.2226V27.4064ZM62.1096 33.421C62.3411 33.421 62.5698 33.386 62.7905 33.308C63.0138 33.2299 63.2103 33.1061 63.3798 32.9312C63.5494 32.7563 63.6893 32.5276 63.7943 32.245C63.8965 31.9597 63.9503 31.6207 63.9503 31.2116C63.9503 30.8402 63.9154 30.5038 63.8427 30.2051C63.77 29.9064 63.6516 29.6481 63.4875 29.4355C63.3233 29.2229 63.1053 29.0587 62.8308 28.9457C62.5563 28.8327 62.22 28.7762 61.8244 28.7762H60.6672V33.4264H62.115L62.1096 33.421Z" fill="url(#paint11_linear_458_98545)"/>
<path d="M71.6279 27.4064V28.7708H67.7311V30.3531H71.3076V31.6126H67.7311V33.421H71.7086V34.7854H66.1084V27.4064H71.6279Z" fill="url(#paint12_linear_458_98545)"/>
<path d="M73.8991 27.4064L76.9777 32.3553H76.9992V27.4064H78.517V34.7854H76.8943L73.8264 29.8445H73.8049V34.7854H72.2871V27.4064H73.8991Z" fill="url(#paint13_linear_458_98545)"/>
<path d="M79.1711 28.7708V27.4064H85.2154V28.7708H83.0033V34.7854H81.3805V28.7708H79.1685H79.1711Z" fill="url(#paint14_linear_458_98545)"/>
<path d="M43.8341 38.1574C43.7372 38.0013 43.6161 37.8667 43.4789 37.7483C43.3389 37.6299 43.1748 37.5411 42.9945 37.4738C42.8141 37.4066 42.6231 37.377 42.4266 37.377C42.066 37.377 41.7592 37.4496 41.5063 37.5896C41.2533 37.7295 41.0515 37.9206 40.8927 38.1574C40.7366 38.3942 40.6236 38.6633 40.5509 38.9674C40.4783 39.2715 40.4433 39.581 40.4433 39.9066C40.4433 40.2322 40.4783 40.5175 40.5509 40.8108C40.6236 41.1041 40.7366 41.3679 40.8927 41.602C41.0488 41.8334 41.2533 42.0245 41.5063 42.1644C41.7592 42.3044 42.0633 42.377 42.4266 42.377C42.9164 42.377 43.2985 42.2263 43.5784 41.9222C43.8583 41.6181 44.0225 41.2199 44.0844 40.7247H45.6398C45.5994 41.1849 45.4945 41.602 45.325 41.9761C45.1554 42.3474 44.9267 42.6623 44.6468 42.926C44.3669 43.1898 44.0359 43.3862 43.6645 43.5261C43.2878 43.6661 42.8787 43.7334 42.4239 43.7334C41.8669 43.7334 41.3583 43.6365 40.9142 43.44C40.4702 43.2436 40.0934 42.9745 39.784 42.63C39.4799 42.2828 39.2404 41.8819 39.0762 41.4163C38.912 40.9507 38.8286 40.4502 38.8286 39.912C38.8286 39.3738 38.912 38.8463 39.0762 38.378C39.2404 37.9071 39.4745 37.4954 39.784 37.1428C40.0881 36.7903 40.4648 36.5185 40.9142 36.3167C41.3583 36.1148 41.8642 36.0179 42.4239 36.0179C42.8276 36.0179 43.2044 36.0745 43.565 36.1929C43.9202 36.3113 44.2431 36.4835 44.5257 36.7042C44.811 36.9275 45.0424 37.2047 45.2281 37.5357C45.4138 37.8667 45.5268 38.2435 45.5752 38.6714H44.0198C43.9929 38.4857 43.931 38.3162 43.8341 38.1601V38.1574Z" fill="url(#paint15_linear_458_98545)"/>
<path d="M47.9787 36.1901V39.0211H50.9335V36.1901H52.5401V43.5691H50.9335V40.3855H47.9787V43.5691H46.3721V36.1901H47.9787Z" fill="url(#paint16_linear_458_98545)"/>
<path d="M53.5679 38.3752C53.7374 37.9043 53.9823 37.4926 54.3026 37.14C54.6228 36.7875 55.0157 36.5157 55.4813 36.3138C55.9468 36.112 56.4689 36.0151 57.0529 36.0151C57.6369 36.0151 58.1697 36.112 58.6299 36.3138C59.0901 36.5157 59.483 36.7902 59.8032 37.14C60.1235 37.4926 60.3657 37.9043 60.5379 38.3752C60.7074 38.8462 60.7908 39.3575 60.7908 39.9092C60.7908 40.4609 60.702 40.9479 60.5379 41.4135C60.3737 41.8791 60.1235 42.2827 59.8032 42.6272C59.483 42.9743 59.0954 43.2408 58.6299 43.4372C58.1643 43.6337 57.6422 43.7306 57.0529 43.7306C56.4635 43.7306 55.9468 43.6337 55.4813 43.4372C55.0157 43.2408 54.6228 42.9717 54.3026 42.6272C53.9823 42.28 53.7401 41.8791 53.5679 41.4135C53.3984 40.9479 53.3149 40.4474 53.3149 39.9092C53.3149 39.371 53.4037 38.8435 53.5679 38.3752ZM55.0965 40.8134C55.1691 41.1067 55.2875 41.3704 55.4517 41.6046C55.6158 41.836 55.8284 42.0271 56.0922 42.167C56.3559 42.307 56.6761 42.3796 57.0475 42.3796C57.4189 42.3796 57.7445 42.307 58.0029 42.167C58.2666 42.0271 58.4792 41.836 58.6433 41.6046C58.8075 41.3731 58.9286 41.1094 58.9986 40.8134C59.0712 40.5201 59.1116 40.2187 59.1116 39.9092C59.1116 39.5997 59.0766 39.2741 58.9986 38.97C58.9259 38.6659 58.8075 38.3968 58.6433 38.16C58.4792 37.9231 58.2666 37.7321 58.0029 37.5921C57.7391 37.4522 57.4189 37.3795 57.0475 37.3795C56.6761 37.3795 56.3505 37.4522 56.0922 37.5921C55.8284 37.7321 55.6158 37.9231 55.4517 38.16C55.2875 38.3968 55.1664 38.6659 55.0965 38.97C55.0238 39.2741 54.9834 39.5835 54.9834 39.9092C54.9834 40.2348 55.0184 40.5201 55.0965 40.8134Z" fill="url(#paint17_linear_458_98545)"/>
<path d="M63.1725 36.1901V43.5691H61.5659V36.1901H63.1725Z" fill="url(#paint18_linear_458_98545)"/>
<path d="M68.9557 38.1574C68.8588 38.0013 68.7377 37.8667 68.6004 37.7483C68.4605 37.6299 68.2963 37.5411 68.116 37.4738C67.9357 37.4066 67.7447 37.377 67.5482 37.377C67.1876 37.377 66.8808 37.4496 66.6279 37.5896C66.3749 37.7295 66.1731 37.9206 66.0143 38.1574C65.8582 38.3942 65.7452 38.6633 65.6725 38.9674C65.5998 39.2715 65.5649 39.581 65.5649 39.9066C65.5649 40.2322 65.5998 40.5175 65.6725 40.8108C65.7452 41.1041 65.8582 41.3679 66.0143 41.602C66.1704 41.8334 66.3749 42.0245 66.6279 42.1644C66.8808 42.3044 67.1849 42.377 67.5482 42.377C68.038 42.377 68.4201 42.2263 68.7 41.9222C68.9799 41.6181 69.144 41.2199 69.2059 40.7247H70.7614C70.721 41.1849 70.6161 41.602 70.4465 41.9761C70.277 42.3474 70.0483 42.6623 69.7684 42.926C69.4885 43.1898 69.1575 43.3862 68.7861 43.5261C68.4094 43.6661 68.0003 43.7334 67.5455 43.7334C66.9885 43.7334 66.4798 43.6365 66.0358 43.44C65.5918 43.2436 65.215 42.9745 64.9055 42.63C64.6014 42.2828 64.3619 41.8819 64.1978 41.4163C64.0336 40.9507 63.9502 40.4502 63.9502 39.912C63.9502 39.3738 64.0336 38.8463 64.1978 38.378C64.3619 37.9071 64.5961 37.4954 64.9055 37.1428C65.2096 36.7903 65.5864 36.5185 66.0358 36.3167C66.4798 36.1148 66.9858 36.0179 67.5455 36.0179C67.9492 36.0179 68.3259 36.0745 68.6865 36.1929C69.0418 36.3113 69.3647 36.4835 69.6473 36.7042C69.9325 36.9275 70.164 37.2047 70.3497 37.5357C70.5353 37.8667 70.6484 38.2435 70.6968 38.6714H69.1413C69.1144 38.4857 69.0525 38.3162 68.9557 38.1601V38.1574Z" fill="url(#paint19_linear_458_98545)"/>
<path d="M76.9534 36.1901V37.5545H73.0998V39.1368H76.6386V40.3963H73.0998V42.2047H77.0369V43.5691H71.4932V36.1901H76.9534Z" fill="url(#paint20_linear_458_98545)"/>
<path d="M42.7576 58.5721H39.7086C39.3668 58.5721 39.0896 58.4941 38.8662 58.3353C38.6429 58.1738 38.4949 57.9747 38.4061 57.7244L37.405 54.775H30.9678L29.9694 57.7244C29.8914 57.9424 29.7434 58.1388 29.5146 58.3138C29.2913 58.4887 29.0141 58.5775 28.6885 58.5775H25.6206L32.1761 41.6396H36.2021L42.7576 58.5775V58.5721ZM31.8774 52.0973H36.5061L34.9507 47.4578C34.8484 47.1645 34.7327 46.8173 34.5955 46.4191C34.4555 46.0208 34.3263 45.5875 34.1918 45.1219C34.068 45.5983 33.9388 46.0315 33.8097 46.4352C33.6805 46.8389 33.5513 47.1887 33.4383 47.4847L31.8774 52.1V52.0973Z" fill="url(#paint21_linear_458_98545)"/>
<path d="M40.1795 46.5186H43.0617C43.32 46.5186 43.538 46.5751 43.7237 46.6935C43.9094 46.8119 44.0224 46.9626 44.0601 47.1483L45.2684 52.552C45.3626 52.9665 45.4433 53.3621 45.5267 53.7496C45.6048 54.1371 45.6774 54.5192 45.7393 54.9014C45.847 54.5246 45.9627 54.1425 46.0811 53.755C46.1995 53.3728 46.3179 52.9692 46.4363 52.552L47.946 47.1375C47.9918 46.9572 48.1075 46.8119 48.2824 46.6881C48.4573 46.5697 48.6646 46.5078 48.896 46.5078H50.4972C50.7556 46.5078 50.9735 46.5697 51.1538 46.6881C51.3341 46.8065 51.4472 46.9572 51.4956 47.1375L52.938 52.552C53.0457 52.9665 53.156 53.3621 53.2691 53.7496C53.3821 54.1371 53.487 54.53 53.5893 54.9229C53.6512 54.5354 53.7292 54.1479 53.8153 53.7657C53.9042 53.3836 54.001 52.9745 54.1006 52.552L55.3762 47.1483C55.4166 46.9626 55.5269 46.8119 55.7072 46.6935C55.8875 46.5805 56.0947 46.5186 56.3262 46.5186H59.0711L55.3251 58.5721H52.3944C52.2384 58.5721 52.1038 58.5263 51.9962 58.4321C51.8885 58.3379 51.7997 58.1845 51.7432 57.9666L50.0236 51.9573C49.9455 51.6882 49.8729 51.4191 49.8002 51.1554C49.7329 50.8916 49.671 50.6279 49.6145 50.3642C49.5634 50.6387 49.5015 50.9078 49.4342 51.1715C49.3669 51.4406 49.2943 51.7097 49.2082 51.9788L47.4616 57.9666C47.3432 58.3702 47.0903 58.5721 46.692 58.5721H43.9013L40.1553 46.5186H40.1795Z" fill="url(#paint22_linear_458_98545)"/>
<path d="M67.5697 58.572C67.2279 58.572 66.9696 58.5263 66.7947 58.4321C66.6197 58.3379 66.4744 58.1415 66.3614 57.8535L66.103 57.1915C65.8043 57.4498 65.5083 57.6732 65.2311 57.8697C64.9512 58.0661 64.6633 58.2249 64.3619 58.3648C64.0632 58.5048 63.7483 58.6016 63.4119 58.6635C63.0755 58.7308 62.6988 58.7604 62.2897 58.7604C61.7381 58.7604 61.2402 58.6878 60.7908 58.5424C60.3414 58.3971 59.9592 58.1872 59.6444 57.9073C59.3295 57.6275 59.0873 57.283 58.9151 56.8632C58.7455 56.4488 58.6567 55.9697 58.6567 55.4207C58.6567 54.9929 58.7644 54.5515 58.9824 54.1021C59.2003 53.6527 59.5771 53.2383 60.1099 52.8723C60.6428 52.5063 61.3667 52.1941 62.2709 51.9465C63.1805 51.6989 64.3215 51.5752 65.7021 51.5752V51.0585C65.7021 50.3453 65.5567 49.834 65.2688 49.5138C64.9782 49.1935 64.5664 49.0374 64.0282 49.0374C63.6003 49.0374 63.2532 49.0832 62.9787 49.1774C62.7042 49.2716 62.4674 49.3738 62.2494 49.4922C62.0368 49.6053 61.8296 49.7156 61.6304 49.8071C61.4286 49.9013 61.1918 49.947 60.9119 49.947C60.6643 49.947 60.4517 49.8851 60.2768 49.7667C60.1019 49.6483 59.9673 49.4976 59.8624 49.3173L59.2111 48.1897C59.9404 47.5493 60.745 47.0675 61.6331 46.7527C62.5212 46.4378 63.4738 46.2817 64.4857 46.2817C65.215 46.2817 65.8716 46.4001 66.4556 46.637C67.0395 46.8738 67.5347 47.2048 67.9438 47.6246C68.3528 48.0471 68.6623 48.5503 68.8803 49.1289C69.0982 49.7075 69.2059 50.3426 69.2059 51.0342V58.5667H67.5589L67.5697 58.572ZM63.4308 56.3761C63.8963 56.3761 64.3027 56.2927 64.6498 56.1339C64.997 55.9697 65.3522 55.706 65.7101 55.3427V53.6904C64.9916 53.6904 64.3969 53.7361 63.934 53.8303C63.4684 53.9245 63.1025 54.0429 62.828 54.1828C62.5588 54.3228 62.3678 54.4816 62.2655 54.6645C62.1633 54.8449 62.1094 55.0413 62.1094 55.2485C62.1094 55.6629 62.2225 55.9563 62.4458 56.1204C62.6692 56.29 62.9975 56.3734 63.4335 56.3734L63.4308 56.3761Z" fill="url(#paint23_linear_458_98545)"/>
<path d="M70.3145 58.572V46.5186H72.4539C72.6288 46.5186 72.7795 46.5347 72.9033 46.5643C73.0217 46.5966 73.1267 46.6423 73.202 46.7096C73.2854 46.7769 73.3473 46.8657 73.3877 46.9734C73.4281 47.081 73.4657 47.2102 73.4953 47.3663L73.6918 48.4938C74.1358 47.813 74.631 47.2748 75.18 46.8765C75.7317 46.4782 76.3318 46.2817 76.983 46.2817C77.532 46.2817 77.976 46.4109 78.3071 46.6746L77.8415 49.3254C77.8092 49.4895 77.7473 49.6053 77.6558 49.6672C77.5616 49.7344 77.4378 49.764 77.2844 49.764C77.1499 49.764 76.9938 49.7479 76.8189 49.7129C76.6386 49.6779 76.4152 49.6618 76.1461 49.6618C75.2015 49.6618 74.4561 50.1677 73.9152 51.1769V58.572H70.3145Z" fill="url(#paint24_linear_458_98545)"/>
<path d="M87.1933 58.572C86.9672 58.572 86.7788 58.5209 86.6308 58.4213C86.4801 58.3244 86.3725 58.1683 86.3106 57.9665L86.0307 57.0461C85.7885 57.3045 85.5409 57.5305 85.2772 57.7431C85.0135 57.9557 84.7282 58.1307 84.4241 58.2867C84.12 58.4374 83.789 58.5558 83.4365 58.6339C83.0839 58.7173 82.7018 58.7577 82.2901 58.7577C81.6657 58.7577 81.0817 58.6177 80.5435 58.3379C80.0053 58.058 79.5451 57.657 79.1576 57.1296C78.7701 56.6021 78.466 55.9562 78.2426 55.192C78.0193 54.4277 77.9116 53.5585 77.9116 52.5816C77.9116 51.6828 78.0354 50.8458 78.283 50.0762C78.5306 49.3065 78.8831 48.6391 79.3379 48.0767C79.7927 47.5142 80.3363 47.0756 80.9714 46.758C81.6065 46.4432 82.3089 46.2817 83.0732 46.2817C83.6921 46.2817 84.2196 46.3759 84.6502 46.5562C85.078 46.7365 85.471 46.976 85.8181 47.2693V41.1659H89.4188V58.5693H87.1879L87.1933 58.572ZM83.5414 55.9885C83.8052 55.9885 84.042 55.9616 84.2546 55.9105C84.4672 55.8594 84.6636 55.7867 84.8439 55.6925C85.0188 55.5983 85.1911 55.4799 85.3499 55.3454C85.5113 55.2054 85.6647 55.0466 85.8208 54.8556V49.7398C85.5409 49.4411 85.2476 49.2285 84.9327 49.1047C84.6179 48.9809 84.2869 48.9244 83.9397 48.9244C83.5926 48.9244 83.2992 48.9916 83.0193 49.1208C82.7395 49.25 82.4973 49.4626 82.2901 49.7559C82.0828 50.0492 81.9241 50.4233 81.8083 50.8862C81.6953 51.3517 81.6334 51.9142 81.6334 52.5708C81.6334 53.2274 81.6792 53.7441 81.7734 54.1774C81.8676 54.6107 81.9967 54.9632 82.1609 55.2323C82.325 55.5014 82.5269 55.6925 82.761 55.8055C82.9924 55.9186 83.2508 55.9805 83.5414 55.9805V55.9885Z" fill="url(#paint25_linear_458_98545)"/>
<path d="M98.628 49.1532C98.5338 49.3039 98.4369 49.4062 98.3346 49.4681C98.2324 49.53 98.0978 49.5623 97.931 49.5623C97.7668 49.5623 97.5892 49.5273 97.4196 49.4546C97.2501 49.382 97.0644 49.2985 96.868 49.2178C96.6715 49.1344 96.4482 49.0536 96.2006 48.981C95.953 48.9083 95.6677 48.8733 95.3529 48.8733C94.8981 48.8733 94.5455 48.9621 94.298 49.1371C94.0504 49.312 93.932 49.5569 93.932 49.8664C93.932 50.0924 94.01 50.2754 94.1688 50.4234C94.3303 50.5741 94.5402 50.7033 94.8039 50.8109C95.0676 50.9186 95.3663 51.0289 95.6973 51.1312C96.0337 51.2334 96.3755 51.3438 96.72 51.4676C97.0671 51.5914 97.4062 51.7367 97.7426 51.9008C98.079 52.065 98.3723 52.2722 98.636 52.5144C98.8998 52.7566 99.1124 53.058 99.2711 53.4025C99.4326 53.7496 99.5079 54.1721 99.5079 54.6592C99.5079 55.254 99.4003 55.8056 99.1823 56.3062C98.9643 56.8121 98.6387 57.2454 98.2108 57.6087C97.7829 57.9747 97.2501 58.2545 96.6204 58.4564C95.9907 58.6582 95.2614 58.7551 94.4406 58.7551C94.0315 58.7551 93.6198 58.7147 93.2107 58.6367C92.7963 58.5586 92.4034 58.4564 92.0159 58.3218C91.6338 58.1926 91.2758 58.0312 90.9502 57.8509C90.6246 57.6706 90.3447 57.4741 90.1133 57.2615L90.9502 55.9348C91.0471 55.7787 91.1736 55.6549 91.3108 55.5688C91.4508 55.48 91.6311 55.4343 91.8598 55.4343C92.0724 55.4343 92.2581 55.48 92.4223 55.5742C92.5864 55.6684 92.7694 55.7706 92.9659 55.8729C93.1623 55.9752 93.3857 56.0801 93.6467 56.1716C93.9051 56.2658 94.2361 56.3116 94.629 56.3116C94.9088 56.3116 95.1457 56.2793 95.3367 56.2228C95.5332 56.1662 95.6839 56.0828 95.8023 55.9859C95.9153 55.8891 96.0041 55.7733 96.0606 55.6495C96.1118 55.5258 96.1441 55.3966 96.1441 55.2674C96.1441 55.0306 96.0606 54.8288 95.9019 54.6727C95.7404 54.5166 95.5251 54.382 95.2614 54.269C94.9976 54.156 94.6989 54.051 94.3625 53.9541C94.0262 53.8573 93.6817 53.7469 93.3345 53.6231C92.9874 53.4994 92.6429 53.3486 92.3065 53.1737C91.9701 52.9988 91.6714 52.7808 91.4077 52.5117C91.144 52.2426 90.9314 51.917 90.7672 51.5295C90.6058 51.1419 90.525 50.671 90.525 50.1247C90.525 49.6134 90.6219 49.1263 90.8184 48.6688C91.0148 48.2086 91.3135 47.7996 91.7064 47.4551C92.0993 47.108 92.5945 46.8308 93.1946 46.6236C93.7893 46.4163 94.4863 46.3141 95.2883 46.3141C95.7216 46.3141 96.1414 46.3545 96.5477 46.4271C96.9568 46.5052 97.3389 46.6128 97.6941 46.7527C98.0494 46.8927 98.375 47.0568 98.671 47.2479C98.9643 47.439 99.2227 47.6462 99.4514 47.8669L98.636 49.1317L98.628 49.1532Z" fill="url(#paint26_linear_458_98545)"/>
<path d="M73.038 75.561H33.2661V59.2072H34.1757V73.7257H73.038V75.561Z" fill="url(#paint27_linear_458_98545)"/>
<path d="M104.771 93.3251H124.933L115.862 78.2952L124.933 62.7998H104.771V93.3251Z" fill="url(#paint28_linear_458_98545)"/>
<path d="M114.072 67.3559L104.771 62.7998L104.777 67.3559H114.072Z" fill="url(#paint29_linear_458_98545)"/>
<path d="M21.0055 93.3251H0.84375L9.91817 78.2952L0.84375 62.7998H21.0055V93.3251Z" fill="url(#paint30_linear_458_98545)"/>
<path d="M11.7051 67.3559L21.0056 62.7998L21.0002 67.3559H11.7051Z" fill="url(#paint31_linear_458_98545)"/>
<path d="M97.0424 67.3209V70.5126H69.254V67.3209H11.6992V113.885H114.053V67.3209H97.0424Z" fill="url(#paint32_linear_458_98545)"/>
<path d="M34.0896 37.2424H33.2661V14.4164H90.5437V15.2533H34.0896V37.2424Z" fill="url(#paint33_linear_458_98545)"/>
<path d="M94.7686 16.4508H95.6781V44.6886H94.7686V16.4508Z" fill="url(#paint34_linear_458_98545)"/>
<path d="M107.22 9.27359L98.1164 9.21169L95.2423 0.578613L92.3682 9.21169L83.2642 9.27359L90.5921 14.672L87.839 23.3427L95.2423 18.0466L102.646 23.3427L99.8925 14.672L107.22 9.27359ZM97.6212 15.3932L98.2052 17.2366L96.6282 16.109L95.2423 15.116L93.8537 16.109L92.2767 17.2366L92.8607 15.3932L93.3774 13.7651L92.0022 12.7532L90.4467 11.6068L92.3843 11.5906L94.0905 11.5799L94.6287 9.96251L95.2423 8.12179L95.8559 9.96251L96.3941 11.5799L98.1003 11.5906L100.038 11.6068L98.4824 12.7532L97.1072 13.7651L97.6239 15.3932H97.6212Z" fill="url(#paint35_linear_458_98545)"/>
<path d="M100.784 6.1278C98.4585 8.35066 98.0387 7.68865 96.3083 6.11704C96.2868 6.10089 96.2679 6.1278 96.2814 6.14395C98.5042 8.46907 97.8369 8.87812 96.2599 10.6139C96.2437 10.6354 96.2706 10.6543 96.2868 10.6408C98.6119 8.41794 99.0263 9.09072 100.757 10.6623C100.778 10.6785 100.797 10.6516 100.784 10.6354C98.5608 8.31029 99.2389 7.89048 100.811 6.1601C100.827 6.13857 100.8 6.11973 100.784 6.13319V6.1278Z" fill="url(#paint36_radial_458_98545)"/>
<path d="M37.3027 39.64C36.2639 41.9329 35.7687 41.5722 34.0464 40.9425C34.0249 40.9371 34.0141 40.9641 34.0357 40.9694C36.3285 42.0082 35.9625 42.5034 35.3274 44.2203C35.322 44.2418 35.3489 44.2526 35.3543 44.2311C36.3931 41.9382 36.8882 42.3042 38.6105 42.9393C38.6321 42.9447 38.6428 42.9178 38.6213 42.9124C36.3285 41.8737 36.6945 41.3731 37.3296 39.6508C37.335 39.6293 37.3081 39.6185 37.3027 39.64Z" fill="url(#paint37_radial_458_98545)"/>
<path d="M74.7066 62.6598C74.5263 62.4418 74.268 62.3342 73.9262 62.3342C73.4606 62.3342 73.1511 62.5037 72.9816 62.8509C72.8847 63.0473 72.8255 63.3676 72.8121 63.8009H71.3347C71.3616 63.1388 71.48 62.6114 71.6899 62.205C72.0989 61.43 72.8175 61.0479 73.8508 61.0479C74.6662 61.0479 75.3175 61.2739 75.8046 61.7287C76.289 62.1835 76.5339 62.7836 76.5339 63.5317C76.5339 64.105 76.3643 64.6109 76.0226 65.0603C75.7992 65.3536 75.4278 65.6846 74.9165 66.0479L74.3056 66.4812C73.9235 66.7503 73.6652 66.9468 73.5252 67.0706C73.3853 67.189 73.2669 67.3343 73.17 67.4931H76.55V68.8305H71.2485C71.2647 68.2789 71.3831 67.7649 71.6038 67.3074C71.8217 66.7907 72.3331 66.2417 73.1431 65.6685C73.8455 65.1679 74.2949 64.8046 74.5021 64.5894C74.8169 64.253 74.9784 63.8816 74.9784 63.4779C74.9784 63.1523 74.8842 62.8778 74.7039 62.6625L74.7066 62.6598Z" fill="url(#paint38_linear_458_98545)"/>
<path d="M79.997 69.0189C79.0093 69.0189 78.3177 68.6718 77.9248 67.9855C77.5319 67.2993 77.3301 66.3117 77.3301 65.0361C77.3301 63.7605 77.5265 62.7729 77.9248 62.0812C78.3231 61.3896 79.0147 61.0425 79.997 61.0425C80.9792 61.0425 81.6762 61.3896 82.0745 62.0812C82.4674 62.7729 82.6692 63.7605 82.6692 65.0361C82.6692 66.3117 82.4728 67.2993 82.0745 67.9855C81.6762 68.6718 80.9846 69.0189 80.0024 69.0189H79.997ZM80.8904 67.0733C81.0304 66.6023 81.0976 65.9268 81.0976 65.0334C81.0976 64.1399 81.025 63.4107 80.885 62.9612C80.7451 62.5118 80.4464 62.2885 79.997 62.2885C79.5476 62.2885 79.2488 62.5118 79.0981 62.9612C78.9528 63.4107 78.8802 64.0969 78.8802 65.0334C78.8802 65.9699 78.9528 66.605 79.0981 67.0733C79.2435 67.5442 79.5422 67.781 79.997 67.781C80.4518 67.781 80.7451 67.5442 80.8904 67.0679V67.0733Z" fill="url(#paint39_linear_458_98545)"/>
<path d="M86.8702 62.6598C86.6899 62.4418 86.4315 62.3342 86.0898 62.3342C85.6242 62.3342 85.3147 62.5037 85.1452 62.8509C85.0483 63.0473 84.9891 63.3676 84.9756 63.8009H83.4982C83.5251 63.1388 83.6435 62.6114 83.8535 62.205C84.2625 61.43 84.981 61.0479 86.0144 61.0479C86.8298 61.0479 87.4811 61.2739 87.9682 61.7287C88.4526 62.1835 88.6975 62.7836 88.6975 63.5317C88.6975 64.105 88.5279 64.6109 88.1861 65.0603C87.9628 65.3536 87.5914 65.6846 87.0801 66.0479L86.4692 66.4812C86.0871 66.7503 85.8287 66.9468 85.6888 67.0706C85.5489 67.189 85.4304 67.3343 85.3336 67.4931H88.7136V68.8305H83.4121C83.4283 68.2789 83.5467 67.7649 83.7673 67.3074C83.9853 66.7907 84.4966 66.2417 85.3067 65.6685C86.009 65.1679 86.4584 64.8046 86.6657 64.5894C86.9805 64.253 87.142 63.8816 87.142 63.4779C87.142 63.1523 87.0478 62.8778 86.8675 62.6625L86.8702 62.6598Z" fill="url(#paint40_linear_458_98545)"/>
<path d="M94.8681 65.9726V67.1621H93.9962V68.8252H92.508V67.1621H89.4429V65.8354L92.2901 61.1394H94.0016V65.9753H94.8735L94.8681 65.9726ZM90.5624 65.9726H92.5V62.6303L90.5624 65.9726Z" fill="url(#paint41_linear_458_98545)"/>
<path d="M39.593 81.3685V82.4019H37.5693V88.0963H36.3206V82.4019H34.2861V81.3685H39.593Z" fill="white"/>
<path d="M46.0625 88.0963H44.8031V85.1576H41.6491V88.0963H40.3896V81.3685H41.6491V84.2642H44.8031V81.3685H46.0625V88.0963Z" fill="white"/>
<path d="M48.8317 88.0963H47.5723V81.3685H48.8317V88.0963Z" fill="white"/>
<path d="M51.633 85.4698V88.0963H50.3843V81.3685H52.4295C52.887 81.3685 53.2826 81.4197 53.6136 81.5192C53.9419 81.6134 54.211 81.7453 54.4209 81.9175C54.6282 82.0844 54.7789 82.2835 54.873 82.5203C54.9726 82.7571 55.0238 83.0209 55.0238 83.3061C55.0238 83.5376 54.9915 83.7529 54.9269 83.952C54.8623 84.1538 54.7654 84.3368 54.6362 84.501C54.5124 84.6678 54.359 84.8105 54.1734 84.9316C53.985 85.0554 53.7751 85.1522 53.5383 85.2222C53.6943 85.3164 53.8316 85.4456 53.9473 85.6097L55.6373 88.0963H54.5071C54.3994 88.0963 54.3052 88.0748 54.2272 88.0317C54.1545 87.9887 54.0926 87.9295 54.0442 87.8487L52.6233 85.6958C52.5721 85.6097 52.5156 85.5532 52.4511 85.5236C52.3865 85.4886 52.2923 85.4698 52.1712 85.4698H51.633ZM51.633 84.5763H52.4188C52.6556 84.5763 52.8601 84.5494 53.0323 84.4902C53.2046 84.4256 53.3472 84.3449 53.4629 84.2426C53.5759 84.135 53.6594 84.0112 53.7105 83.8659C53.767 83.7233 53.7966 83.5699 53.7966 83.403C53.7966 83.0585 53.6836 82.7975 53.4629 82.6172C53.2395 82.4315 52.8951 82.3373 52.4295 82.3373H51.633V84.5763Z" fill="white"/>
<path d="M62.4079 84.7378C62.4079 85.2276 62.3244 85.6797 62.1603 86.0941C61.9934 86.5032 61.762 86.8584 61.4606 87.1598C61.1646 87.4558 60.8066 87.6846 60.3841 87.8487C59.967 88.0156 59.5068 88.0963 59.0063 88.0963H56.4336V81.3685H59.0063C59.5068 81.3685 59.967 81.4546 60.3841 81.6269C60.8066 81.7937 61.1646 82.0225 61.4606 82.3158C61.762 82.6118 61.9934 82.9671 62.1603 83.3815C62.3244 83.7905 62.4079 84.2426 62.4079 84.7378ZM61.1269 84.7378C61.1269 84.3664 61.0758 84.0354 60.9762 83.7475C60.8739 83.4541 60.7313 83.2066 60.5456 83.0047C60.3653 82.7975 60.1419 82.6387 59.8782 82.5311C59.6199 82.4234 59.3292 82.3696 59.0063 82.3696H57.693V87.106H59.0063C59.3292 87.106 59.6199 87.0522 59.8782 86.9445C60.1419 86.8315 60.3653 86.6727 60.5456 86.4709C60.7313 86.2717 60.8739 86.0242 60.9762 85.7281C61.0758 85.4348 61.1269 85.1038 61.1269 84.7378Z" fill="white"/>
<path d="M66.4718 85.7281V88.0963H65.2231V81.3685H67.4083C67.8604 81.3685 68.2506 81.4224 68.5817 81.53C68.91 81.6376 69.1791 81.7857 69.389 81.9713C69.6043 82.1597 69.7604 82.3858 69.8626 82.6495C69.9703 82.9159 70.0241 83.2039 70.0241 83.5107C70.0241 83.8417 69.9703 84.1431 69.8626 84.4149C69.755 84.6813 69.5881 84.9154 69.3675 85.1146C69.1522 85.3083 68.8777 85.459 68.5494 85.5667C68.2264 85.6743 67.8443 85.7281 67.4083 85.7281H66.4718ZM66.4718 84.7486H67.4083C67.6371 84.7486 67.8389 84.7217 68.0111 84.6624C68.1834 84.6059 68.3233 84.5279 68.4309 84.4256C68.544 84.318 68.6301 84.1888 68.6893 84.0381C68.7458 83.882 68.7754 83.7044 68.7754 83.5107C68.7754 83.333 68.7458 83.1716 68.6893 83.0263C68.6301 82.8836 68.544 82.7625 68.4309 82.6603C68.3233 82.5526 68.1834 82.4746 68.0111 82.4234C67.8389 82.3669 67.6371 82.3373 67.4083 82.3373H66.4718V84.7486Z" fill="white"/>
<path d="M72.2414 87.0629H74.9325V88.0963H70.9927V81.3685H72.2414V87.0629Z" fill="white"/>
<path d="M81.7113 88.0963H80.7425C80.6349 88.0963 80.5434 88.0721 80.4734 88.021C80.4088 87.9644 80.3577 87.8972 80.3227 87.8164L79.8275 86.4386H77.0395L76.5336 87.8164C76.5121 87.8891 76.4636 87.9537 76.3937 88.0102C76.321 88.0694 76.2322 88.0963 76.1246 88.0963H75.1558L77.793 81.3685H79.074L81.7113 88.0963ZM77.3625 85.5559H79.5046L78.6865 83.3169C78.6488 83.2254 78.6058 83.1097 78.5573 82.9724C78.5143 82.8379 78.4712 82.6899 78.4282 82.5311C78.3851 82.6899 78.342 82.8379 78.299 82.9724C78.2559 83.1097 78.2156 83.2281 78.1806 83.3277L77.3625 85.5559Z" fill="white"/>
<path d="M87.0235 86.514C87.0935 86.514 87.1554 86.5409 87.2065 86.5893L87.7017 87.1275C87.4272 87.4666 87.0908 87.725 86.6898 87.9026C86.2942 88.0829 85.8179 88.1717 85.2582 88.1717C84.7549 88.1717 84.3028 88.0856 83.9018 87.9133C83.5063 87.7411 83.1699 87.5043 82.89 87.2029C82.6101 86.9015 82.3948 86.5409 82.2441 86.1157C82.0934 85.6932 82.0181 85.233 82.0181 84.7378C82.0181 84.2292 82.0988 83.7663 82.2656 83.3492C82.4298 82.9267 82.6639 82.5634 82.9653 82.262C83.2721 81.9552 83.6381 81.7184 84.0633 81.5516C84.4858 81.3793 84.9514 81.2932 85.4627 81.2932C85.9632 81.2932 86.4019 81.3766 86.7759 81.5408C87.1473 81.6996 87.4676 81.9122 87.734 82.1759L87.3142 82.7572C87.2926 82.7949 87.2603 82.8271 87.2173 82.8541C87.1796 82.8837 87.1312 82.8971 87.0666 82.8971C86.9939 82.8971 86.9186 82.8702 86.8405 82.811C86.7679 82.7545 86.6737 82.6926 86.5607 82.628C86.4449 82.5634 86.2969 82.5042 86.1193 82.445C85.9471 82.3885 85.7237 82.3589 85.4519 82.3589C85.1344 82.3589 84.8437 82.4181 84.58 82.5311C84.3217 82.6388 84.0956 82.7975 83.9018 83.0048C83.7081 83.2066 83.5574 83.4542 83.4497 83.7475C83.3475 84.0435 83.299 84.3718 83.299 84.7378C83.299 85.1119 83.3475 85.4456 83.4497 85.7389C83.5574 86.0349 83.7 86.2852 83.8803 86.4924C84.066 86.6943 84.2813 86.8477 84.5262 86.9553C84.7765 87.0576 85.0456 87.106 85.3335 87.106C85.5057 87.106 85.6591 87.1006 85.7964 87.0845C85.9309 87.063 86.0574 87.036 86.1731 86.9984C86.2942 86.9553 86.4046 86.9015 86.5068 86.8369C86.6145 86.7723 86.7167 86.6943 86.819 86.6001C86.8459 86.5732 86.8782 86.5516 86.9159 86.5355C86.9509 86.522 86.9859 86.514 87.0235 86.514Z" fill="white"/>
<path d="M92.8823 81.3685V82.3696H89.9006V84.2319H92.2472V85.1899H89.9006V87.0952H92.8823V88.0963H88.6411V81.3685H92.8823Z" fill="white"/>
<path d="M42.8142 93.1233C42.7927 93.1744 42.7631 93.2094 42.7281 93.231C42.6904 93.2525 42.6474 93.2632 42.5989 93.2632C42.5559 93.2632 42.5021 93.2471 42.4375 93.2094C42.3783 93.1744 42.3083 93.1341 42.2222 93.091C42.1414 93.0426 42.0446 92.9995 41.9315 92.9618C41.8239 92.9188 41.6974 92.8973 41.5548 92.8973C41.4175 92.8973 41.2991 92.9161 41.1996 92.9511C41.0973 92.9807 41.0112 93.0264 40.9412 93.091C40.8766 93.1502 40.8255 93.2175 40.7905 93.2955C40.7528 93.3763 40.7367 93.4651 40.7367 93.5646C40.7367 93.6884 40.769 93.788 40.8336 93.8661C40.9035 93.9468 40.9977 94.0168 41.1134 94.0813C41.2265 94.1405 41.3556 94.189 41.501 94.232C41.6436 94.2751 41.7916 94.3262 41.9423 94.3827C42.093 94.4339 42.2383 94.4958 42.3836 94.5657C42.5344 94.6303 42.6635 94.7164 42.7712 94.8241C42.8842 94.9264 42.9757 95.0555 43.0403 95.2116C43.1102 95.3623 43.1479 95.5453 43.1479 95.7606C43.1479 95.9974 43.1076 96.2208 43.0295 96.428C42.9488 96.6298 42.8304 96.8101 42.6743 96.9662C42.5236 97.1169 42.3325 97.2353 42.1038 97.3214C41.8804 97.4076 41.6248 97.4506 41.3395 97.4506C41.1726 97.4506 41.0085 97.4318 40.8443 97.3968C40.6775 97.3699 40.5214 97.3268 40.3707 97.2676C40.2254 97.2111 40.0908 97.1384 39.9616 97.0523C39.8325 96.9662 39.7168 96.8747 39.6172 96.7725L39.8971 96.2988C39.924 96.2638 39.9563 96.2342 39.9939 96.2127C40.0289 96.1912 40.072 96.1804 40.1231 96.1804C40.1796 96.1804 40.2442 96.2073 40.3169 96.2558C40.3868 96.3069 40.4703 96.3634 40.5645 96.428C40.656 96.4872 40.769 96.541 40.8982 96.5895C41.0273 96.6325 41.1807 96.654 41.361 96.654C41.6409 96.654 41.8562 96.5895 42.0069 96.4603C42.1576 96.3311 42.2329 96.1454 42.2329 95.9005C42.2329 95.7579 42.1953 95.6422 42.1253 95.5561C42.0607 95.47 41.9692 95.4 41.8562 95.3408C41.7485 95.2843 41.6194 95.2331 41.4687 95.1901C41.3234 95.147 41.178 95.104 41.0273 95.0609C40.882 95.0125 40.7367 94.9533 40.586 94.8887C40.4407 94.8187 40.3115 94.7272 40.1985 94.6196C40.0908 94.5119 39.9993 94.3774 39.9294 94.2105C39.8648 94.0464 39.8325 93.8445 39.8325 93.6077C39.8325 93.422 39.8675 93.239 39.9401 93.0587C40.0182 92.873 40.1285 92.7116 40.2738 92.5743C40.4164 92.4317 40.5968 92.3214 40.812 92.2406C41.0273 92.1545 41.2695 92.1115 41.544 92.1115C41.8508 92.1115 42.1361 92.1626 42.3944 92.2622C42.6528 92.3563 42.8734 92.4882 43.0618 92.6604L42.8142 93.1233Z" fill="white"/>
<path d="M47.5774 92.1652V92.9617H46.0058V97.3967H45.037V92.9617H43.4546V92.1652H47.5774Z" fill="white"/>
<path d="M50.3087 96.6109C50.4944 96.6109 50.6585 96.584 50.8039 96.5248C50.9546 96.4602 51.0784 96.3714 51.1806 96.2556C51.2883 96.1426 51.3663 96.0054 51.4174 95.8466C51.4739 95.6824 51.5035 95.4994 51.5035 95.2976V92.1652H52.4723V95.2976C52.4723 95.6071 52.4212 95.895 52.3216 96.1588C52.2194 96.4252 52.0768 96.6539 51.8911 96.8477C51.7027 97.0361 51.4739 97.1814 51.2021 97.289C50.9357 97.3967 50.637 97.4505 50.3087 97.4505C49.9696 97.4505 49.6655 97.3967 49.3937 97.289C49.1273 97.1814 48.9012 97.0361 48.7156 96.8477C48.5272 96.6539 48.3846 96.4252 48.285 96.1588C48.1827 95.895 48.1343 95.6071 48.1343 95.2976V92.1652H49.1138V95.2976C49.1138 95.4994 49.1381 95.6824 49.1892 95.8466C49.2457 96.0054 49.3237 96.1426 49.426 96.2556C49.5256 96.3714 49.6467 96.4602 49.792 96.5248C49.9427 96.584 50.1149 96.6109 50.3087 96.6109Z" fill="white"/>
<path d="M58.1048 94.7809C58.1048 95.1631 58.0402 95.5129 57.911 95.8358C57.7873 96.1588 57.6096 96.436 57.3728 96.6647C57.1414 96.8961 56.8669 97.0737 56.544 97.2029C56.221 97.3321 55.8604 97.3967 55.4675 97.3967H53.4653V92.1652H55.4675C55.8604 92.1652 56.221 92.2297 56.544 92.3589C56.8669 92.4881 57.1414 92.6684 57.3728 92.8971C57.6096 93.1286 57.7873 93.4031 57.911 93.726C58.0402 94.0489 58.1048 94.4015 58.1048 94.7809ZM57.1145 94.7809C57.1145 94.4957 57.0741 94.24 56.9961 94.0166C56.9234 93.7879 56.8158 93.5941 56.6731 93.4354C56.5278 93.2793 56.3529 93.1555 56.1457 93.0694C55.9438 92.9833 55.7178 92.9402 55.4675 92.9402H54.4449V96.6216H55.4675C55.7178 96.6216 55.9438 96.584 56.1457 96.5032C56.3529 96.4171 56.5278 96.296 56.6731 96.1372C56.8158 95.9812 56.9234 95.7874 56.9961 95.556C57.0741 95.3272 57.1145 95.0689 57.1145 94.7809Z" fill="white"/>
<path d="M62.1684 92.1652V92.9402H59.8541V94.3934H61.684V95.1361H59.8541V96.6216H62.1684V97.3967H58.8745V92.1652H62.1684Z" fill="white"/>
<path d="M63.5196 92.1652C63.5627 92.1652 63.5976 92.1705 63.6272 92.1759C63.6622 92.1759 63.6918 92.184 63.7134 92.1975C63.7349 92.2055 63.7564 92.219 63.7779 92.2405C63.7995 92.262 63.8237 92.2916 63.8533 92.3266L66.5982 95.8251C66.5821 95.739 66.5713 95.6582 66.5659 95.5775C66.5659 95.4914 66.5659 95.4133 66.5659 95.3407V92.1652H67.4271V97.3967H66.9212C66.8485 97.3967 66.7839 97.3859 66.7274 97.3644C66.6763 97.3375 66.6305 97.2944 66.5875 97.2352L63.8533 93.7475C63.8587 93.8283 63.8641 93.9063 63.8641 93.9844C63.8694 94.057 63.8748 94.1243 63.8748 94.1889V97.3967H63.0137V92.1652H63.5196Z" fill="white"/>
<path d="M72.1662 92.165V92.9616H70.5946V97.3966H69.6258V92.9616H68.0435V92.165H72.1662Z" fill="white"/>
<path d="M75.1534 96.5893H77.2524V97.3967H74.1846V92.1652H75.1534V96.5893Z" fill="white"/>
<path d="M79.0206 97.3967H78.041V92.1652H79.0206V97.3967Z" fill="white"/>
<path d="M83.4873 92.1652V92.9402H81.1729V94.4903H83.1321V95.2653H81.1729V97.3967H80.1934V92.1652H83.4873Z" fill="white"/>
<path d="M87.5512 92.1652V92.9402H85.2369V94.3934H87.0668V95.1361H85.2369V96.6216H87.5512V97.3967H84.2573V92.1652H87.5512Z" fill="white"/>
<defs>
<linearGradient id="paint0_linear_458_98545" x1="38.4704" y1="22.4608" x2="46.0296" y2="22.4608" gradientUnits="userSpaceOnUse">
<stop stop-color="#8C5027"/>
<stop offset="0.53" stop-color="#A46A35"/>
<stop offset="1" stop-color="#CA9452"/>
</linearGradient>
<linearGradient id="paint1_linear_458_98545" x1="46.6184" y1="22.4608" x2="51.4753" y2="22.4608" gradientUnits="userSpaceOnUse">
<stop stop-color="#8C5027"/>
<stop offset="0.53" stop-color="#A46A35"/>
<stop offset="1" stop-color="#CA9452"/>
</linearGradient>
<linearGradient id="paint2_linear_458_98545" x1="52.0287" y1="22.4608" x2="57.6555" y2="22.4608" gradientUnits="userSpaceOnUse">
<stop stop-color="#8C5027"/>
<stop offset="0.53" stop-color="#A46A35"/>
<stop offset="1" stop-color="#CA9452"/>
</linearGradient>
<linearGradient id="paint3_linear_458_98545" x1="56.9212" y1="22.4608" x2="61.6334" y2="22.4608" gradientUnits="userSpaceOnUse">
<stop stop-color="#8C5027"/>
<stop offset="0.53" stop-color="#A46A35"/>
<stop offset="1" stop-color="#CA9452"/>
</linearGradient>
<linearGradient id="paint4_linear_458_98545" x1="62.2539" y1="22.5228" x2="67.1625" y2="22.5228" gradientUnits="userSpaceOnUse">
<stop stop-color="#8C5027"/>
<stop offset="0.53" stop-color="#A46A35"/>
<stop offset="1" stop-color="#CA9452"/>
</linearGradient>
<linearGradient id="paint5_linear_458_98545" x1="67.7511" y1="22.4608" x2="72.6081" y2="22.4608" gradientUnits="userSpaceOnUse">
<stop stop-color="#8C5027"/>
<stop offset="0.53" stop-color="#A46A35"/>
<stop offset="1" stop-color="#CA9452"/>
</linearGradient>
<linearGradient id="paint6_linear_458_98545" x1="73.1976" y1="22.4608" x2="74.4635" y2="22.4608" gradientUnits="userSpaceOnUse">
<stop stop-color="#8C5027"/>
<stop offset="0.53" stop-color="#A46A35"/>
<stop offset="1" stop-color="#CA9452"/>
</linearGradient>
<linearGradient id="paint7_linear_458_98545" x1="75.1709" y1="22.3935" x2="79.1339" y2="22.3935" gradientUnits="userSpaceOnUse">
<stop stop-color="#8C5027"/>
<stop offset="0.53" stop-color="#A46A35"/>
<stop offset="1" stop-color="#CA9452"/>
</linearGradient>
<linearGradient id="paint8_linear_458_98545" x1="38.6923" y1="31.0895" x2="44.903" y2="31.0895" gradientUnits="userSpaceOnUse">
<stop stop-color="#8C5027"/>
<stop offset="0.53" stop-color="#A46A35"/>
<stop offset="1" stop-color="#CA9452"/>
</linearGradient>
<linearGradient id="paint9_linear_458_98545" x1="45.1098" y1="31.0947" x2="51.1551" y2="31.0947" gradientUnits="userSpaceOnUse">
<stop stop-color="#8C5027"/>
<stop offset="0.53" stop-color="#A46A35"/>
<stop offset="1" stop-color="#CA9452"/>
</linearGradient>
<linearGradient id="paint10_linear_458_98545" x1="51.9096" y1="31.1774" x2="58.2029" y2="31.1774" gradientUnits="userSpaceOnUse">
<stop stop-color="#8C5027"/>
<stop offset="0.53" stop-color="#A46A35"/>
<stop offset="1" stop-color="#CA9452"/>
</linearGradient>
<linearGradient id="paint11_linear_458_98545" x1="59.0401" y1="31.0947" x2="65.5711" y2="31.0947" gradientUnits="userSpaceOnUse">
<stop stop-color="#8C5027"/>
<stop offset="0.53" stop-color="#A46A35"/>
<stop offset="1" stop-color="#CA9452"/>
</linearGradient>
<linearGradient id="paint12_linear_458_98545" x1="66.1083" y1="31.0947" x2="71.7092" y2="31.0947" gradientUnits="userSpaceOnUse">
<stop stop-color="#8C5027"/>
<stop offset="0.53" stop-color="#A46A35"/>
<stop offset="1" stop-color="#CA9452"/>
</linearGradient>
<linearGradient id="paint13_linear_458_98545" x1="72.2879" y1="31.0947" x2="78.5192" y2="31.0947" gradientUnits="userSpaceOnUse">
<stop stop-color="#8C5027"/>
<stop offset="0.53" stop-color="#A46A35"/>
<stop offset="1" stop-color="#CA9452"/>
</linearGradient>
<linearGradient id="paint14_linear_458_98545" x1="79.1704" y1="31.0947" x2="85.2157" y2="31.0947" gradientUnits="userSpaceOnUse">
<stop stop-color="#8C5027"/>
<stop offset="0.53" stop-color="#A46A35"/>
<stop offset="1" stop-color="#CA9452"/>
</linearGradient>
<linearGradient id="paint15_linear_458_98545" x1="38.8321" y1="39.8733" x2="45.6369" y2="39.8733" gradientUnits="userSpaceOnUse">
<stop stop-color="#8C5027"/>
<stop offset="0.53" stop-color="#A46A35"/>
<stop offset="1" stop-color="#CA9452"/>
</linearGradient>
<linearGradient id="paint16_linear_458_98545" x1="46.3709" y1="39.8784" x2="52.5402" y2="39.8784" gradientUnits="userSpaceOnUse">
<stop stop-color="#8C5027"/>
<stop offset="0.53" stop-color="#A46A35"/>
<stop offset="1" stop-color="#CA9452"/>
</linearGradient>
<linearGradient id="paint17_linear_458_98545" x1="53.315" y1="39.8732" x2="60.7864" y2="39.8732" gradientUnits="userSpaceOnUse">
<stop stop-color="#8C5027"/>
<stop offset="0.53" stop-color="#A46A35"/>
<stop offset="1" stop-color="#CA9452"/>
</linearGradient>
<linearGradient id="paint18_linear_458_98545" x1="61.5667" y1="39.8784" x2="63.1736" y2="39.8784" gradientUnits="userSpaceOnUse">
<stop stop-color="#8C5027"/>
<stop offset="0.53" stop-color="#A46A35"/>
<stop offset="1" stop-color="#CA9452"/>
</linearGradient>
<linearGradient id="paint19_linear_458_98545" x1="63.9486" y1="39.8733" x2="70.7534" y2="39.8733" gradientUnits="userSpaceOnUse">
<stop stop-color="#8C5027"/>
<stop offset="0.53" stop-color="#A46A35"/>
<stop offset="1" stop-color="#CA9452"/>
</linearGradient>
<linearGradient id="paint20_linear_458_98545" x1="71.4921" y1="39.8784" x2="77.0362" y2="39.8784" gradientUnits="userSpaceOnUse">
<stop stop-color="#8C5027"/>
<stop offset="0.53" stop-color="#A46A35"/>
<stop offset="1" stop-color="#CA9452"/>
</linearGradient>
<linearGradient id="paint21_linear_458_98545" x1="25.6253" y1="50.1038" x2="42.7589" y2="50.1038" gradientUnits="userSpaceOnUse">
<stop stop-color="#8C5027"/>
<stop offset="0.53" stop-color="#A46A35"/>
<stop offset="1" stop-color="#CA9452"/>
</linearGradient>
<linearGradient id="paint22_linear_458_98545" x1="40.1806" y1="52.5374" x2="59.0812" y2="52.5374" gradientUnits="userSpaceOnUse">
<stop stop-color="#8C5027"/>
<stop offset="0.53" stop-color="#A46A35"/>
<stop offset="1" stop-color="#CA9452"/>
</linearGradient>
<linearGradient id="paint23_linear_458_98545" x1="58.6628" y1="52.5219" x2="69.2188" y2="52.5219" gradientUnits="userSpaceOnUse">
<stop stop-color="#8C5027"/>
<stop offset="0.53" stop-color="#A46A35"/>
<stop offset="1" stop-color="#CA9452"/>
</linearGradient>
<linearGradient id="paint24_linear_458_98545" x1="70.314" y1="52.4289" x2="78.3124" y2="52.4289" gradientUnits="userSpaceOnUse">
<stop stop-color="#8C5027"/>
<stop offset="0.53" stop-color="#A46A35"/>
<stop offset="1" stop-color="#CA9452"/>
</linearGradient>
<linearGradient id="paint25_linear_458_98545" x1="77.9147" y1="49.9642" x2="89.4267" y2="49.9642" gradientUnits="userSpaceOnUse">
<stop stop-color="#8C5027"/>
<stop offset="0.53" stop-color="#A46A35"/>
<stop offset="1" stop-color="#CA9452"/>
</linearGradient>
<linearGradient id="paint26_linear_458_98545" x1="90.1192" y1="52.5426" x2="99.5127" y2="52.5426" gradientUnits="userSpaceOnUse">
<stop stop-color="#8C5027"/>
<stop offset="0.53" stop-color="#A46A35"/>
<stop offset="1" stop-color="#CA9452"/>
</linearGradient>
<linearGradient id="paint27_linear_458_98545" x1="33.2673" y1="64.9839" x2="73.0372" y2="64.9839" gradientUnits="userSpaceOnUse">
<stop stop-color="#AE773D"/>
<stop offset="0.08" stop-color="#8C5027"/>
<stop offset="0.28" stop-color="#CA9452"/>
<stop offset="0.35" stop-color="#C58E4F"/>
<stop offset="0.44" stop-color="#B87D49"/>
<stop offset="0.54" stop-color="#A2623E"/>
<stop offset="0.56" stop-color="#9E5D3C"/>
<stop offset="0.59" stop-color="#A4653F"/>
<stop offset="0.73" stop-color="#BF874C"/>
<stop offset="0.8" stop-color="#CA9452"/>
<stop offset="0.88" stop-color="#AF7740"/>
<stop offset="1" stop-color="#854925"/>
</linearGradient>
<linearGradient id="paint28_linear_458_98545" x1="104.772" y1="78.0621" x2="124.934" y2="78.0621" gradientUnits="userSpaceOnUse">
<stop stop-color="#541513"/>
<stop offset="0.38" stop-color="#CA9452"/>
<stop offset="0.56" stop-color="#9E5D3C"/>
<stop offset="0.96" stop-color="#9B530D"/>
</linearGradient>
<linearGradient id="paint29_linear_458_98545" x1="104.772" y1="65.0776" x2="114.073" y2="65.0776" gradientUnits="userSpaceOnUse">
<stop stop-color="#541513"/>
<stop offset="0.08" stop-color="#8C5027"/>
<stop offset="0.38" stop-color="#CA9452"/>
<stop offset="0.56" stop-color="#9E5D3C"/>
<stop offset="0.8" stop-color="#D6B089"/>
<stop offset="0.92" stop-color="#AA6B2D"/>
<stop offset="0.96" stop-color="#9B530D"/>
</linearGradient>
<linearGradient id="paint30_linear_458_98545" x1="21.0063" y1="78.0621" x2="0.844935" y2="78.0621" gradientUnits="userSpaceOnUse">
<stop stop-color="#541513"/>
<stop offset="0.38" stop-color="#CA9452"/>
<stop offset="0.56" stop-color="#9E5D3C"/>
<stop offset="0.96" stop-color="#9B530D"/>
</linearGradient>
<linearGradient id="paint31_linear_458_98545" x1="11.7058" y1="65.0776" x2="21.0063" y2="65.0776" gradientUnits="userSpaceOnUse">
<stop stop-color="#541513"/>
<stop offset="0.08" stop-color="#8C5027"/>
<stop offset="0.38" stop-color="#CA9452"/>
<stop offset="0.56" stop-color="#9E5D3C"/>
<stop offset="0.8" stop-color="#D6B089"/>
<stop offset="0.92" stop-color="#AA6B2D"/>
<stop offset="0.96" stop-color="#9B530D"/>
</linearGradient>
<linearGradient id="paint32_linear_458_98545" x1="11.7002" y1="90.6023" x2="114.052" y2="90.6023" gradientUnits="userSpaceOnUse">
<stop stop-color="#AE773D"/>
<stop offset="0.08" stop-color="#8C5027"/>
<stop offset="0.28" stop-color="#CA9452"/>
<stop offset="0.35" stop-color="#C58E4F"/>
<stop offset="0.44" stop-color="#B87D49"/>
<stop offset="0.54" stop-color="#A2623E"/>
<stop offset="0.56" stop-color="#9E5D3C"/>
<stop offset="0.59" stop-color="#A4653F"/>
<stop offset="0.73" stop-color="#BF874C"/>
<stop offset="0.8" stop-color="#CA9452"/>
<stop offset="0.88" stop-color="#AF7740"/>
<stop offset="1" stop-color="#854925"/>
</linearGradient>
<linearGradient id="paint33_linear_458_98545" x1="33.426" y1="25.6072" x2="90.9929" y2="25.6072" gradientUnits="userSpaceOnUse">
<stop stop-color="#AE773D"/>
<stop offset="0.08" stop-color="#8C5027"/>
<stop offset="0.28" stop-color="#CA9452"/>
<stop offset="0.35" stop-color="#C58E4F"/>
<stop offset="0.44" stop-color="#B87D49"/>
<stop offset="0.54" stop-color="#A2623E"/>
<stop offset="0.56" stop-color="#9E5D3C"/>
<stop offset="0.59" stop-color="#A4653F"/>
<stop offset="0.73" stop-color="#BF874C"/>
<stop offset="0.8" stop-color="#CA9452"/>
<stop offset="0.88" stop-color="#AF7740"/>
<stop offset="1" stop-color="#854925"/>
</linearGradient>
<linearGradient id="paint34_linear_458_98545" x1="94.7691" y1="30.1716" x2="95.6785" y2="30.1716" gradientUnits="userSpaceOnUse">
<stop stop-color="#AE773D"/>
<stop offset="0.08" stop-color="#8C5027"/>
<stop offset="0.28" stop-color="#CA9452"/>
<stop offset="0.35" stop-color="#C58E4F"/>
<stop offset="0.44" stop-color="#B87D49"/>
<stop offset="0.54" stop-color="#A2623E"/>
<stop offset="0.56" stop-color="#9E5D3C"/>
<stop offset="0.59" stop-color="#A4653F"/>
<stop offset="0.73" stop-color="#BF874C"/>
<stop offset="0.8" stop-color="#CA9452"/>
<stop offset="0.88" stop-color="#AF7740"/>
<stop offset="1" stop-color="#854925"/>
</linearGradient>
<linearGradient id="paint35_linear_458_98545" x1="83.2624" y1="11.9615" x2="107.222" y2="11.9615" gradientUnits="userSpaceOnUse">
<stop stop-color="#541513"/>
<stop offset="0.08" stop-color="#8C5027"/>
<stop offset="0.38" stop-color="#CA9452"/>
<stop offset="0.8" stop-color="#D6B089"/>
<stop offset="0.92" stop-color="#AA6B2D"/>
<stop offset="0.96" stop-color="#9B530D"/>
</linearGradient>
<radialGradient id="paint36_radial_458_98545" cx="0" cy="0" r="1" gradientUnits="userSpaceOnUse" gradientTransform="translate(98.534 8.38253) rotate(45) scale(3.19833)">
<stop stop-color="#F2F2F2"/>
<stop offset="1" stop-color="#E7E7E7"/>
</radialGradient>
<radialGradient id="paint37_radial_458_98545" cx="0" cy="0" r="1" gradientUnits="userSpaceOnUse" gradientTransform="translate(36.3931 41.8438) rotate(23.07) scale(2.50596)">
<stop stop-color="#F2F2F2"/>
<stop offset="1" stop-color="#E7E7E7"/>
</radialGradient>
<linearGradient id="paint38_linear_458_98545" x1="71.2495" y1="65.0259" x2="94.8676" y2="65.0259" gradientUnits="userSpaceOnUse">
<stop stop-color="#AE773D"/>
<stop offset="0.08" stop-color="#8C5027"/>
<stop offset="0.28" stop-color="#CA9452"/>
<stop offset="0.35" stop-color="#C58E4F"/>
<stop offset="0.44" stop-color="#B87D49"/>
<stop offset="0.54" stop-color="#A2623E"/>
<stop offset="0.56" stop-color="#9E5D3C"/>
<stop offset="0.59" stop-color="#A4653F"/>
<stop offset="0.73" stop-color="#BF874C"/>
<stop offset="0.8" stop-color="#CA9452"/>
<stop offset="0.88" stop-color="#AF7740"/>
<stop offset="1" stop-color="#854925"/>
</linearGradient>
<linearGradient id="paint39_linear_458_98545" x1="71.2491" y1="65.0259" x2="94.8672" y2="65.0259" gradientUnits="userSpaceOnUse">
<stop stop-color="#AE773D"/>
<stop offset="0.08" stop-color="#8C5027"/>
<stop offset="0.28" stop-color="#CA9452"/>
<stop offset="0.35" stop-color="#C58E4F"/>
<stop offset="0.44" stop-color="#B87D49"/>
<stop offset="0.54" stop-color="#A2623E"/>
<stop offset="0.56" stop-color="#9E5D3C"/>
<stop offset="0.59" stop-color="#A4653F"/>
<stop offset="0.73" stop-color="#BF874C"/>
<stop offset="0.8" stop-color="#CA9452"/>
<stop offset="0.88" stop-color="#AF7740"/>
<stop offset="1" stop-color="#854925"/>
</linearGradient>
<linearGradient id="paint40_linear_458_98545" x1="71.2493" y1="65.0259" x2="94.8673" y2="65.0259" gradientUnits="userSpaceOnUse">
<stop stop-color="#AE773D"/>
<stop offset="0.08" stop-color="#8C5027"/>
<stop offset="0.28" stop-color="#CA9452"/>
<stop offset="0.35" stop-color="#C58E4F"/>
<stop offset="0.44" stop-color="#B87D49"/>
<stop offset="0.54" stop-color="#A2623E"/>
<stop offset="0.56" stop-color="#9E5D3C"/>
<stop offset="0.59" stop-color="#A4653F"/>
<stop offset="0.73" stop-color="#BF874C"/>
<stop offset="0.8" stop-color="#CA9452"/>
<stop offset="0.88" stop-color="#AF7740"/>
<stop offset="1" stop-color="#854925"/>
</linearGradient>
<linearGradient id="paint41_linear_458_98545" x1="71.2492" y1="65.0259" x2="94.8673" y2="65.0259" gradientUnits="userSpaceOnUse">
<stop stop-color="#AE773D"/>
<stop offset="0.08" stop-color="#8C5027"/>
<stop offset="0.28" stop-color="#CA9452"/>
<stop offset="0.35" stop-color="#C58E4F"/>
<stop offset="0.44" stop-color="#B87D49"/>
<stop offset="0.54" stop-color="#A2623E"/>
<stop offset="0.56" stop-color="#9E5D3C"/>
<stop offset="0.59" stop-color="#A4653F"/>
<stop offset="0.73" stop-color="#BF874C"/>
<stop offset="0.8" stop-color="#CA9452"/>
<stop offset="0.88" stop-color="#AF7740"/>
<stop offset="1" stop-color="#854925"/>
</linearGradient>
</defs>
</svg>
