<?xml version="1.0" encoding="utf-8"?>
<!-- Generator: Adobe Illustrator 15.0.0, SVG Export Plug-In . SVG Version: 6.00 Build 0)  -->
<!DOCTYPE svg PUBLIC "-//W3C//DTD SVG 1.1//EN" "http://www.w3.org/Graphics/SVG/1.1/DTD/svg11.dtd">
<svg version="1.1" id="Layer_1" xmlns="http://www.w3.org/2000/svg" xmlns:xlink="http://www.w3.org/1999/xlink" x="0px" y="0px"
	 width="92.563px" height="101.587px" viewBox="103.462 153.462 92.563 101.587"
	 enable-background="new 103.462 153.462 92.563 101.587" xml:space="preserve">
<path fill="#00B6EE" d="M196.237,199.85c0-25.613-20.774-46.388-46.387-46.388s-46.388,20.775-46.388,46.388
	c0,22.238,15.638,40.8,36.488,45.337l9.862,9.862l9.862-9.862C180.563,240.688,196.237,222.088,196.237,199.85z"/>
<g>
	<path fill="#FFFFFF" d="M135.938,199.175h-3.862l-3-12h-0.038l-2.925,12h-3.938l-4.688-17.662h3.863l2.775,12h0.038l3.075-12h3.638
		l3,12.15h0.038l2.887-12.15h3.788L135.938,199.175z"/>
	<path fill="#FFFFFF" d="M141.487,181.55h3.863v6.788h7.125v-6.788h3.9v17.663h-3.862V191.6h-7.125v7.612h-3.863V181.55H141.487z"/>
	<path fill="#FFFFFF" d="M163.612,181.55h3.976l6.6,17.663h-4.013l-1.35-3.938h-6.601l-1.387,3.938H156.9L163.612,181.55z
		 M163.237,192.388h4.575L165.6,185.9h-0.037L163.237,192.388z"/>
	<path fill="#FFFFFF" d="M174.825,184.813h-5.288v-3.263h14.476v3.263h-5.288v14.4h-3.862v-14.4H174.825z"/>
	<path fill="#FFFFFF" d="M134.1,211.662c0,4.763-2.813,7.088-7.538,7.088c-4.763,0-7.5-2.287-7.5-7.088v-10.987h3.862v10.987
		c0,1.913,0.488,3.825,3.638,3.825c2.775,0,3.675-1.2,3.675-3.825v-10.987h3.863V211.662L134.1,211.662z"/>
	<path fill="#FFFFFF" d="M135.487,200.675h3.863l7.35,11.851h0.037v-11.851h3.638v17.663h-3.862l-7.35-11.813h-0.038v11.813h-3.638
		V200.675z"/>
	<path fill="#FFFFFF" d="M151.8,200.675h3.862v17.663H151.8V200.675z"/>
	<path fill="#A8DBF4" d="M157.2,206.375c0.075-3.525,2.399-6.112,6-6.112c4.688,0,6.149,2.85,6.149,4.763
		c0,2.399-1.012,3.375-2.063,4.162c-1.05,0.787-2.212,1.425-2.438,2.888v0.938h-3.337v-1.125c0.149-2.138,1.162-3.112,2.138-3.862
		c0.975-0.75,1.8-1.351,1.8-2.663c0-1.5-0.788-2.212-2.101-2.212c-1.762,0-2.512,1.462-2.55,3.225H157.2L157.2,206.375z
		 M161.175,214.513h3.862v3.787h-3.862V214.513z"/>
</g>
</svg>
