<svg width="48" height="48" viewBox="0 0 48 48" fill="none" xmlns="http://www.w3.org/2000/svg">
<path d="M0 24C0 10.7452 10.7452 0 24 0H48V24C48 37.2548 37.2548 48 24 48H0V24Z" fill="#FFD700"/>
<path d="M19.9372 17.2292H28.0622M28.0622 30.7708V26.7083M23.9997 30.7708H24.0132M19.9372 30.7708H19.9507M19.9372 26.7083H19.9507M23.9997 26.7083H24.0132M28.0622 22.6458H28.0757M23.9997 22.6458H24.0132M19.9372 22.6458H19.9507M17.2288 36.1875H30.7705C32.2663 36.1875 33.4788 34.9749 33.4788 33.4792V14.5208C33.4788 13.0251 32.2663 11.8125 30.7705 11.8125H17.2288C15.7331 11.8125 14.5205 13.0251 14.5205 14.5208V33.4792C14.5205 34.9749 15.7331 36.1875 17.2288 36.1875Z" stroke="#F05F46" stroke-width="2.0625" stroke-linecap="round" stroke-linejoin="round"/>
</svg>
