<svg width="26" height="25" viewBox="0 0 26 25" fill="none" xmlns="http://www.w3.org/2000/svg">
<path fill-rule="evenodd" clip-rule="evenodd" d="M7.33582 5.24627C7.33582 3.87313 8.47015 2.73881 9.81343 2.73881H10.5597C11.6045 2.73881 12.4403 3.57463 12.4403 4.6194C12.4403 5.66418 12.9776 5.84328 13.6642 5.84328H18.0821C18.6791 5.84328 19.1269 6.3209 19.1269 6.88806C19.1269 7.45522 18.6493 7.93284 18.0821 7.93284H14.9776C13.8731 7.93284 12.7985 8.17164 11.8134 8.64925L7.66418 10.6194C7.09701 10.8881 6.47015 11.0373 5.84328 11.0373H5.00746C3.72388 11.0373 2.70896 9.99254 2.70896 8.73881C2.70896 7.48507 3.72388 6.4403 5.00746 6.4403H6.08209C6.76866 6.4403 7.30597 5.87313 7.30597 5.21642L7.33582 5.24627ZM9.81343 0.5C7.54478 0.5 5.66418 2.11194 5.18657 4.23134H5.03731C2.52985 4.23134 0.5 6.26119 0.5 8.76866C0.5 11.2761 1.51493 12.0821 2.97761 12.8284V19.6642C2.97761 22.3507 5.15672 24.5 7.81343 24.5H15.2761C17.7836 24.5 19.8433 22.5896 20.1119 20.1418H21.5149C23.5149 20.1418 25.1269 18.5299 25.1269 16.5299V12.1716C25.1269 10.1716 23.5149 8.5597 21.5149 8.5597H20.9179C21.2164 8.08209 21.3657 7.48507 21.3657 6.88806C21.3657 5.06716 19.903 3.60448 18.0821 3.60448H14.5597C14.1119 1.81343 12.5 0.5 10.5597 0.5L9.81343 0.5ZM17.903 10.2015H14.9776C14.2313 10.2015 13.4552 10.3806 12.7687 10.709L8.6194 12.6791C7.75373 13.097 6.79851 13.306 5.84328 13.306H5.18657V19.6343C5.18657 21.0672 6.35075 22.2612 7.81343 22.2612H15.2761C16.709 22.2612 17.903 21.097 17.903 19.6343V10.1716V10.2015ZM21.5149 17.903H20.1418V10.7985H21.5149C22.2612 10.7985 22.8881 11.4254 22.8881 12.1716V16.5299C22.8881 17.2761 22.2612 17.903 21.5149 17.903Z" fill="white"/>
</svg>
