<svg width="49" height="48" viewBox="0 0 49 48" fill="none" xmlns="http://www.w3.org/2000/svg">
<path d="M0.60022 24C0.60022 10.7452 11.3454 0 24.6002 0H48.6002V24C48.6002 37.2548 37.8551 48 24.6002 48H0.60022V24Z" fill="#0FBEFD"/>
<path d="M24.6002 16.5764V33.007M24.6002 16.5764C23.1241 15.5957 21.1201 14.993 18.9127 14.993C16.7053 14.993 14.7013 15.5957 13.2252 16.5764V33.007C14.7013 32.0263 16.7053 31.4236 18.9127 31.4236C21.1201 31.4236 23.1241 32.0263 24.6002 33.007M24.6002 16.5764C26.0763 15.5957 28.0803 14.993 30.2877 14.993C32.4951 14.993 34.4991 15.5957 35.9752 16.5764V33.007C34.4991 32.0263 32.4951 31.4236 30.2877 31.4236C28.0803 31.4236 26.0763 32.0263 24.6002 33.007" stroke="#0657AD" stroke-width="2.33625" stroke-linecap="round" stroke-linejoin="round"/>
</svg>
