<svg width="48" height="48" viewBox="0 0 48 48" fill="none" xmlns="http://www.w3.org/2000/svg">
<path d="M0 24C0 10.7452 10.7452 0 24 0H48V24C48 37.2548 37.2548 48 24 48H0V24Z" fill="#FFD700"/>
<g clip-path="url(#clip0_3684_34338)">
<mask id="mask0_3684_34338" style="mask-type:luminance" maskUnits="userSpaceOnUse" x="12" y="13" width="24" height="22">
<path d="M36 13H12V34.7025H36V13Z" fill="white"/>
</mask>
<g mask="url(#mask0_3684_34338)">
<path d="M22.2376 23.4771H12.8008L15.0459 33.9542H33.0066L35.2517 23.4771H25.5529" stroke="#F05F46" stroke-width="2" stroke-linecap="round" stroke-linejoin="round"/>
<path d="M24.026 13.7484C23.1953 13.7484 22.5293 14.4219 22.5293 15.2451V26.4705C22.5293 27.2937 23.1953 27.9673 24.026 27.9673C24.8567 27.9673 25.5227 27.2937 25.5227 26.4705V15.2451C25.5227 14.4219 24.8492 13.7484 24.026 13.7484Z" stroke="#F05F46" stroke-width="2" stroke-linecap="round" stroke-linejoin="round"/>
<path d="M30.8662 15.0879C30.0654 14.8709 29.2497 15.3499 29.0327 16.1431L28.6436 17.5875L33.7025 18.942L34.0916 17.4977C34.3087 16.6969 33.8297 15.8812 33.0364 15.6642L30.8662 15.0804V15.0879Z" stroke="#F05F46" stroke-width="2" stroke-linecap="round" stroke-linejoin="round"/>
<path d="M25.8447 22.2647C25.8447 22.2647 26.4284 20.0945 27.7007 19.6679C28.9804 19.2339 29.3695 17.7895 29.3695 17.7895" stroke="#F05F46" stroke-width="2" stroke-linecap="round" stroke-linejoin="round"/>
<path d="M33.9491 23.4546C34.0165 22.7437 33.9865 21.7858 33.4776 21.2096C32.5871 20.1993 32.9762 18.7474 32.9762 18.7474" stroke="#F05F46" stroke-width="2" stroke-linecap="round" stroke-linejoin="round"/>
<path d="M22.5143 18.6277C22.0802 18.3807 21.5713 18.2385 21.0325 18.2385C19.3786 18.2385 18.0391 19.5781 18.0391 21.232C18.0391 22.1225 18.4282 22.9233 19.0494 23.4696" stroke="#F05F46" stroke-width="2"/>
<path d="M16.6246 19.3087C16.2504 19.1066 15.8238 18.9869 15.3673 18.9869C13.923 18.9869 12.748 20.1618 12.748 21.6062C12.748 22.2423 12.9726 22.826 13.3542 23.2825" stroke="#F05F46" stroke-width="2" stroke-linecap="round"/>
<path d="M16.6992 19.3087C17.0734 19.1066 17.5 18.9869 17.9565 18.9869C18.2708 18.9869 18.5776 19.0468 18.862 19.1441" stroke="#F05F46" stroke-width="2" stroke-linecap="round"/>
<path d="M15.5615 16.8765C15.8833 17.1609 16.1378 17.5201 16.2949 17.9542C16.3997 18.2535 16.4521 18.5603 16.4521 18.8597" stroke="#F05F46" stroke-width="2" stroke-linecap="round"/>
</g>
</g>
<defs>
<clipPath id="clip0_3684_34338">
<rect width="24" height="21.7025" fill="white" transform="translate(12 13)"/>
</clipPath>
</defs>
</svg>
