<svg width="49" height="48" viewBox="0 0 49 48" fill="none" xmlns="http://www.w3.org/2000/svg">
<path d="M0.19986 24C0.19986 10.7452 10.945 0 24.1999 0H48.1999V24C48.1999 37.2548 37.4547 48 24.1999 48H0.19986V24Z" fill="#0FBEFD"/>
<path d="M35.5749 26.8506C32.0621 28.2725 28.2224 29.0555 24.1999 29.0555C20.1773 29.0555 16.3376 28.2725 12.8249 26.8506M29.2554 17.6806V15.1528C29.2554 13.7567 28.1237 12.625 26.7276 12.625H21.6721C20.276 12.625 19.1443 13.7567 19.1443 15.1528V17.6806M24.1999 25.2639H24.2125M15.3526 35.375H33.0471C34.4431 35.375 35.5749 34.2433 35.5749 32.8472V20.2083C35.5749 18.8123 34.4431 17.6806 33.0471 17.6806H15.3526C13.9566 17.6806 12.8249 18.8123 12.8249 20.2083V32.8472C12.8249 34.2433 13.9566 35.375 15.3526 35.375Z" stroke="#0657AD" stroke-width="2.33625" stroke-linecap="round" stroke-linejoin="round"/>
</svg>
