<svg width="48" height="49" viewBox="0 0 48 49" fill="none" xmlns="http://www.w3.org/2000/svg">
<rect y="0.0478516" width="48" height="48" rx="24" fill="#5C656E"/>
<path d="M29 32.0479H34V30.0479C34 28.391 32.6569 27.0479 31 27.0479C30.0444 27.0479 29.1931 27.4947 28.6438 28.1907M29 32.0479H19M29 32.0479V30.0479C29 29.3916 28.8736 28.7649 28.6438 28.1907M19 32.0479H14V30.0479C14 28.391 15.3431 27.0479 17 27.0479C17.9556 27.0479 18.8069 27.4947 19.3562 28.1907M19 32.0479V30.0479C19 29.3916 19.1264 28.7649 19.3562 28.1907M19.3562 28.1907C20.0935 26.3489 21.8948 25.0479 24 25.0479C26.1052 25.0479 27.9065 26.3489 28.6438 28.1907M27 19.0479C27 20.7047 25.6569 22.0479 24 22.0479C22.3431 22.0479 21 20.7047 21 19.0479C21 17.391 22.3431 16.0479 24 16.0479C25.6569 16.0479 27 17.391 27 19.0479ZM33 22.0479C33 23.1524 32.1046 24.0479 31 24.0479C29.8954 24.0479 29 23.1524 29 22.0479C29 20.9433 29.8954 20.0479 31 20.0479C32.1046 20.0479 33 20.9433 33 22.0479ZM19 22.0479C19 23.1524 18.1046 24.0479 17 24.0479C15.8954 24.0479 15 23.1524 15 22.0479C15 20.9433 15.8954 20.0479 17 20.0479C18.1046 20.0479 19 20.9433 19 22.0479Z" stroke="white" stroke-width="2" stroke-linecap="round" stroke-linejoin="round"/>
</svg>
