<svg width="48" height="48" viewBox="0 0 48 48" fill="none" xmlns="http://www.w3.org/2000/svg">
<path d="M-0.000366211 24C-0.000366211 10.7452 10.7448 0 23.9996 0H47.9996V24C47.9996 37.2548 37.2545 48 23.9996 48H-0.000366211V24Z" fill="#0FBEFD"/>
<path d="M27.7913 20.2083C27.7913 18.8123 26.6596 17.6806 25.2635 17.6806C23.8675 17.6806 22.7357 18.8123 22.7357 20.2083V26.5278C22.7357 27.9238 21.604 29.0556 20.208 29.0556H27.7913M20.208 24H25.2635M35.3746 24C35.3746 30.2822 30.2819 35.375 23.9996 35.375C17.7174 35.375 12.6246 30.2822 12.6246 24C12.6246 17.7178 17.7174 12.625 23.9996 12.625C30.2819 12.625 35.3746 17.7178 35.3746 24Z" stroke="#0657AD" stroke-width="2.33625" stroke-linecap="round" stroke-linejoin="round"/>
</svg>
