<svg width="48" height="48" viewBox="0 0 48 48" fill="none" xmlns="http://www.w3.org/2000/svg">
<path d="M0 24C0 10.7452 10.7452 0 24 0H48V24C48 37.2548 37.2548 48 24 48H0V24Z" fill="#FFD700"/>
<path d="M28.0625 19.9375C28.0625 18.4417 26.8499 17.2292 25.3542 17.2292C23.8584 17.2292 22.6458 18.4417 22.6458 19.9375V26.7083C22.6458 28.2041 21.4333 29.4167 19.9375 29.4167H28.0625M19.9375 24H25.3542M36.1875 24C36.1875 30.731 30.731 36.1875 24 36.1875C17.269 36.1875 11.8125 30.731 11.8125 24C11.8125 17.269 17.269 11.8125 24 11.8125C30.731 11.8125 36.1875 17.269 36.1875 24Z" stroke="#F05F46" stroke-width="2.0625" stroke-linecap="round" stroke-linejoin="round"/>
</svg>
