<svg width="49" height="48" viewBox="0 0 49 48" fill="none" xmlns="http://www.w3.org/2000/svg">
<path d="M0.800415 24C0.800415 10.7452 11.5456 0 24.8004 0H48.8004V24C48.8004 37.2548 38.0552 48 24.8004 48H0.800415V24Z" fill="#0FBEFD"/>
<path d="M30.4879 33.1H36.1754V30.825C36.1754 28.9404 34.6476 27.4125 32.7629 27.4125C31.6759 27.4125 30.7076 27.9208 30.0827 28.7126M30.4879 33.1H19.1129M30.4879 33.1V30.825C30.4879 30.0786 30.3441 29.3657 30.0827 28.7126M19.1129 33.1H13.4254V30.825C13.4254 28.9404 14.9532 27.4125 16.8379 27.4125C17.9249 27.4125 18.8932 27.9208 19.5181 28.7126M19.1129 33.1V30.825C19.1129 30.0786 19.2567 29.3657 19.5181 28.7126M19.5181 28.7126C20.3568 26.6174 22.4058 25.1375 24.8004 25.1375C27.1951 25.1375 29.2441 26.6174 30.0827 28.7126M28.2129 18.3125C28.2129 20.1972 26.6851 21.725 24.8004 21.725C22.9157 21.725 21.3879 20.1972 21.3879 18.3125C21.3879 16.4279 22.9157 14.9 24.8004 14.9C26.6851 14.9 28.2129 16.4279 28.2129 18.3125ZM35.0379 21.725C35.0379 22.9815 34.0194 24 32.7629 24C31.5065 24 30.4879 22.9815 30.4879 21.725C30.4879 20.4686 31.5065 19.45 32.7629 19.45C34.0194 19.45 35.0379 20.4686 35.0379 21.725ZM19.1129 21.725C19.1129 22.9815 18.0944 24 16.8379 24C15.5815 24 14.5629 22.9815 14.5629 21.725C14.5629 20.4686 15.5815 19.45 16.8379 19.45C18.0944 19.45 19.1129 20.4686 19.1129 21.725Z" stroke="#0657AD" stroke-width="2.33625" stroke-linecap="round" stroke-linejoin="round"/>
</svg>
