<svg width="48" height="48" viewBox="0 0 48 48" fill="none" xmlns="http://www.w3.org/2000/svg">
<path d="M0 24C0 10.7452 10.7452 0 24 0H48V24C48 37.2548 37.2548 48 24 48H0V24Z" fill="#B4E646"/>
<g clip-path="url(#clip0_3684_34372)">
<mask id="mask0_3684_34372" style="mask-type:luminance" maskUnits="userSpaceOnUse" x="15" y="12" width="18" height="24">
<path d="M32.9607 12H15V36H32.9607V12Z" fill="white"/>
</mask>
<g mask="url(#mask0_3684_34372)">
<path d="M29.2186 12.7484H18.7415C17.0883 12.7484 15.748 14.0886 15.748 15.7418V27.7156C15.748 29.3689 17.0883 30.7091 18.7415 30.7091H29.2186C30.8718 30.7091 32.212 29.3689 32.212 27.7156V15.7418C32.212 14.0886 30.8718 12.7484 29.2186 12.7484Z" stroke="#1E8782" stroke-width="2"/>
</g>
<path d="M18.7422 15.7418V22.4771H29.2193V15.7418H18.7422Z" stroke="#1E8782" stroke-width="2" stroke-linecap="round" stroke-linejoin="round"/>
<mask id="mask1_3684_34372" style="mask-type:luminance" maskUnits="userSpaceOnUse" x="15" y="12" width="18" height="24">
<path d="M32.9607 12H15V36H32.9607V12Z" fill="white"/>
</mask>
<g mask="url(#mask1_3684_34372)">
<path d="M20.2389 27.7156C21.0621 27.7156 21.7356 27.0496 21.7356 26.2189C21.7356 25.3882 21.0621 24.7222 20.2389 24.7222C19.4157 24.7222 18.7422 25.3957 18.7422 26.2189C18.7422 27.0421 19.4082 27.7156 20.2389 27.7156Z" fill="#1E8782"/>
<path d="M20.2389 27.7156C21.0655 27.7156 21.7356 27.0455 21.7356 26.2189C21.7356 25.3923 21.0655 24.7222 20.2389 24.7222C19.4123 24.7222 18.7422 25.3923 18.7422 26.2189C18.7422 27.0455 19.4123 27.7156 20.2389 27.7156Z" stroke="#1E8782"/>
<path d="M27.7223 27.7156C28.5455 27.7156 29.219 27.0496 29.219 26.2189C29.219 25.3882 28.5455 24.7222 27.7223 24.7222C26.8991 24.7222 26.2256 25.3957 26.2256 26.2189C26.2256 27.0421 26.8916 27.7156 27.7223 27.7156Z" fill="#1E8782"/>
<path d="M27.7223 27.7156C28.5489 27.7156 29.219 27.0455 29.219 26.2189C29.219 25.3923 28.5489 24.7222 27.7223 24.7222C26.8957 24.7222 26.2256 25.3923 26.2256 26.2189C26.2256 27.0455 26.8957 27.7156 27.7223 27.7156Z" stroke="#1E8782"/>
<path d="M17.2451 33.7025H30.7157" stroke="#1E8782" stroke-width="2"/>
<path d="M16.4971 35.2516L19.1388 30.6791" stroke="#1E8782" stroke-width="2" stroke-linecap="round"/>
<path d="M31.464 35.2516L28.8223 30.6791" stroke="#1E8782" stroke-width="2" stroke-linecap="round"/>
</g>
</g>
<defs>
<clipPath id="clip0_3684_34372">
<rect width="17.9607" height="24" fill="white" transform="translate(15 12)"/>
</clipPath>
</defs>
</svg>
