<svg width="48" height="49" viewBox="0 0 48 49" fill="none" xmlns="http://www.w3.org/2000/svg">
<rect y="0.0478516" width="48" height="48" rx="24" fill="#5C656E"/>
<path d="M33 25.3033C30.2207 26.4283 27.1827 27.0478 24 27.0478C20.8173 27.0478 17.7793 26.4283 15 25.3033M28 18.0479V16.0479C28 14.9433 27.1046 14.0479 26 14.0479H22C20.8954 14.0479 20 14.9433 20 16.0479V18.0479M24 24.0479H24.01M17 32.0479H31C32.1046 32.0479 33 31.1524 33 30.0479V20.0479C33 18.9433 32.1046 18.0479 31 18.0479H17C15.8954 18.0479 15 18.9433 15 20.0479V30.0479C15 31.1524 15.8954 32.0479 17 32.0479Z" stroke="white" stroke-width="2" stroke-linecap="round" stroke-linejoin="round"/>
</svg>
