<svg width="125" height="114" viewBox="0 0 125 114" fill="none" xmlns="http://www.w3.org/2000/svg">
<path d="M43.2232 25.3072L42.2463 21.432H42.2302L41.2695 25.3072H39.9885L38.4653 19.6074H39.7302L40.6397 23.4826H40.6559L41.6543 19.6074H42.8384L43.8206 23.5338H43.8368L44.776 19.6074H46.0166L44.4719 25.3072H43.2151H43.2232Z" fill="url(#paint0_linear_458_98257)"/>
<path d="M47.884 19.6074V21.7926H50.2145V19.6074H51.4793V25.3072H50.2145V22.8475H47.884V25.3072H46.6191V19.6074H47.884Z" fill="url(#paint1_linear_458_98257)"/>
<path d="M55.5057 19.6074L57.6559 25.3072H56.3426L55.9094 24.037H53.7592L53.3098 25.3072H52.0396L54.214 19.6074H55.5111H55.5057ZM55.5784 23.1059L54.8545 21.0122H54.8383L54.0902 23.1059H55.5837H55.5784Z" fill="url(#paint2_linear_458_98257)"/>
<path d="M56.9207 20.6623V19.6074H61.6328V20.6623H59.9078V25.3072H58.643V20.6623H56.918H56.9207Z" fill="url(#paint3_linear_458_98257)"/>
<path d="M66.5122 24.8739C66.0789 25.2507 65.4734 25.4363 64.7092 25.4363C63.9449 25.4363 63.3286 25.2507 62.9007 24.8793C62.4729 24.5079 62.2603 23.9347 62.2603 23.1597V19.6155H63.5251V23.1597C63.5251 23.3158 63.5412 23.4638 63.5654 23.6145C63.5924 23.7652 63.6489 23.8943 63.735 24.0074C63.8238 24.1204 63.9422 24.2146 64.0902 24.2872C64.2409 24.3599 64.4454 24.3949 64.7038 24.3949C65.1532 24.3949 65.4681 24.298 65.6403 24.0962C65.8098 23.8943 65.8986 23.5849 65.8986 23.1597V19.6155H67.1635V23.1597C67.1635 23.9293 66.9455 24.5025 66.5122 24.8793V24.8739Z" fill="url(#paint4_linear_458_98257)"/>
<path d="M69.0065 19.6074L71.4097 23.4315H71.4258V19.6074H72.6099V25.3072H71.3451L68.9527 21.4939H68.9365V25.3072H67.7524V19.6074H69.0092H69.0065Z" fill="url(#paint5_linear_458_98257)"/>
<path d="M74.4645 19.6074V25.3072H73.1997V19.6074H74.4645Z" fill="url(#paint6_linear_458_98257)"/>
<path d="M75.3199 20.657C75.4141 20.4202 75.5459 20.2129 75.7128 20.038C75.8769 19.8631 76.0842 19.7285 76.3264 19.629C76.5632 19.5321 76.8323 19.4783 77.1283 19.4783C77.5105 19.4783 77.8253 19.5294 78.0837 19.6344C78.3366 19.7366 78.5438 19.8658 78.6972 20.0219C78.8533 20.178 78.9663 20.3421 79.0336 20.5224C79.1009 20.6973 79.1305 20.8696 79.1305 21.0176C79.1305 21.2706 79.0982 21.4831 79.0336 21.6473C78.9663 21.8115 78.8829 21.9514 78.786 22.0698C78.6892 22.1882 78.5734 22.2878 78.455 22.3685C78.3366 22.4519 78.2182 22.5327 78.1133 22.6161C78.0056 22.6995 77.9114 22.791 77.828 22.9014C77.7446 23.009 77.6934 23.1382 77.6719 23.2996V23.6037H76.582V23.2485C76.5982 23.0225 76.6439 22.8287 76.7166 22.6753C76.7892 22.5192 76.8727 22.3901 76.9695 22.2824C77.0664 22.1748 77.166 22.0806 77.2736 21.9972C77.3813 21.9137 77.4808 21.8357 77.5723 21.7603C77.6665 21.6769 77.7365 21.5962 77.7957 21.4966C77.8522 21.3997 77.8791 21.2786 77.8737 21.136C77.8737 20.8938 77.8119 20.7135 77.6934 20.5924C77.575 20.474 77.4028 20.4175 77.1875 20.4175C77.0422 20.4175 76.9184 20.4444 76.8108 20.5009C76.7031 20.5574 76.6197 20.6301 76.5524 20.7243C76.4851 20.8184 76.434 20.9261 76.4017 21.0499C76.3694 21.1737 76.356 21.3082 76.356 21.4535H75.1719C75.1773 21.1629 75.2284 20.9019 75.3226 20.6624L75.3199 20.657ZM77.7338 24.0774V25.3072H76.469V24.0774H77.7338Z" fill="url(#paint7_linear_458_98257)"/>
<path d="M40.3973 32.9661C40.4861 33.1356 40.6045 33.2756 40.7525 33.3859C40.9032 33.4935 41.0728 33.5716 41.2746 33.6227C41.4765 33.6738 41.6837 33.7008 41.8936 33.7008C42.0389 33.7008 42.1923 33.69 42.3591 33.6658C42.5233 33.6389 42.6794 33.5931 42.8247 33.5258C42.97 33.4586 43.0884 33.3617 43.1853 33.2406C43.2822 33.1222 43.3306 32.9661 43.3306 32.7804C43.3306 32.5786 43.2687 32.4198 43.1396 32.296C43.0104 32.1722 42.8462 32.0699 42.639 31.9865C42.4318 31.9031 42.2004 31.8304 41.9366 31.7685C41.6729 31.7066 41.4092 31.6394 41.1401 31.5613C40.8656 31.494 40.5965 31.4052 40.3327 31.3084C40.069 31.2115 39.8376 31.0823 39.6303 30.9208C39.4231 30.7594 39.259 30.5656 39.1298 30.3261C39.0006 30.0893 38.9387 29.7986 38.9387 29.4623C38.9387 29.0855 39.0222 28.7545 39.1809 28.4746C39.3424 28.1947 39.5523 27.9633 39.816 27.7776C40.0798 27.5919 40.3731 27.452 40.7041 27.3632C41.0351 27.2744 41.3661 27.2286 41.6971 27.2286C42.0846 27.2286 42.4506 27.269 42.8086 27.3578C43.1638 27.4466 43.4813 27.5839 43.7531 27.7776C44.0276 27.9687 44.2483 28.2163 44.4098 28.5177C44.5712 28.8164 44.652 29.1797 44.652 29.6076H43.0804C43.0642 29.3842 43.0185 29.2039 42.9404 29.0586C42.8624 28.9133 42.7547 28.8002 42.6256 28.7168C42.4964 28.6334 42.3457 28.5769 42.1761 28.5419C42.0066 28.5069 41.8236 28.4908 41.6245 28.4908C41.4953 28.4908 41.3607 28.5069 41.2316 28.5311C41.1024 28.558 40.984 28.6092 40.8763 28.6765C40.7687 28.7437 40.6799 28.8325 40.6126 28.9348C40.5453 29.0371 40.5103 29.1662 40.5103 29.3277C40.5103 29.473 40.5373 29.5914 40.5938 29.6802C40.6503 29.769 40.7579 29.8498 40.9194 29.9278C41.0809 30.0059 41.3069 30.0785 41.5922 30.1539C41.8774 30.2319 42.2542 30.3234 42.7144 30.4445C42.8543 30.4714 43.0454 30.5226 43.2876 30.5952C43.5298 30.6679 43.772 30.7809 44.0169 30.9424C44.2591 31.1038 44.4663 31.3137 44.6412 31.5775C44.8161 31.8412 44.9049 32.183 44.9049 32.5947C44.9049 32.9311 44.8376 33.246 44.7085 33.5339C44.5793 33.8245 44.3829 34.0721 44.1245 34.282C43.8662 34.4946 43.5459 34.6534 43.1638 34.7718C42.7816 34.8902 42.3376 34.9467 41.8371 34.9467C41.428 34.9467 41.0351 34.8956 40.653 34.796C40.2708 34.6992 39.9344 34.5377 39.6411 34.3251C39.3478 34.1125 39.1137 33.8407 38.9441 33.5097C38.7746 33.1787 38.6912 32.7858 38.6965 32.331H40.2681C40.2681 32.5786 40.3139 32.7912 40.4027 32.9607L40.3973 32.9661Z" fill="url(#paint8_linear_458_98257)"/>
<path d="M45.1096 28.7706V27.4062H51.1539V28.7706H48.9418V34.7853H47.319V28.7706H45.1069H45.1096Z" fill="url(#paint9_linear_458_98257)"/>
<path d="M57.365 34.2201C56.808 34.7045 56.0383 34.9494 55.0507 34.9494C54.063 34.9494 53.2772 34.7072 52.7309 34.2255C52.182 33.7438 51.9102 33.0011 51.9102 31.9946V27.4062H53.5329V31.9946C53.5329 32.1964 53.549 32.3929 53.584 32.5839C53.619 32.775 53.6917 32.9446 53.802 33.0953C53.9097 33.246 54.0657 33.3644 54.2622 33.4559C54.4586 33.5501 54.7224 33.5958 55.0534 33.5958C55.632 33.5958 56.0302 33.4666 56.2509 33.2083C56.4743 32.9499 56.5819 32.5463 56.5819 31.9946V27.4062H58.2047V31.9946C58.2047 32.993 57.9248 33.7357 57.3677 34.2228L57.365 34.2201Z" fill="url(#paint10_linear_458_98257)"/>
<path d="M62.2226 27.4063C62.699 27.4063 63.143 27.4843 63.5494 27.6323C63.9584 27.783 64.3136 28.0091 64.615 28.3132C64.9138 28.6173 65.1479 28.994 65.3174 29.4488C65.487 29.9036 65.5704 30.4364 65.5704 31.05C65.5704 31.5882 65.5031 32.0834 65.3632 32.5382C65.2232 32.993 65.016 33.3859 64.7388 33.7169C64.459 34.0479 64.1145 34.3063 63.6947 34.4973C63.2749 34.6884 62.7851 34.7826 62.2226 34.7826H59.0391V27.4036H62.2226V27.4063ZM62.1096 33.4209C62.3411 33.4209 62.5698 33.3859 62.7905 33.3079C63.0138 33.2298 63.2103 33.106 63.3798 32.9311C63.5494 32.7562 63.6893 32.5274 63.7943 32.2449C63.8965 31.9596 63.9503 31.6205 63.9503 31.2115C63.9503 30.8401 63.9154 30.5037 63.8427 30.205C63.77 29.9063 63.6516 29.648 63.4875 29.4354C63.3233 29.2228 63.1053 29.0586 62.8308 28.9456C62.5563 28.8325 62.22 28.776 61.8244 28.776H60.6672V33.4263H62.115L62.1096 33.4209Z" fill="url(#paint11_linear_458_98257)"/>
<path d="M71.6279 27.4062V28.7706H67.7311V30.353H71.3076V31.6125H67.7311V33.4209H71.7086V34.7853H66.1084V27.4062H71.6279Z" fill="url(#paint12_linear_458_98257)"/>
<path d="M73.8991 27.4062L76.9777 32.3552H76.9992V27.4062H78.517V34.7853H76.8943L73.8264 29.8444H73.8049V34.7853H72.2871V27.4062H73.8991Z" fill="url(#paint13_linear_458_98257)"/>
<path d="M79.1711 28.7706V27.4062H85.2154V28.7706H83.0033V34.7853H81.3805V28.7706H79.1685H79.1711Z" fill="url(#paint14_linear_458_98257)"/>
<path d="M43.8341 38.1573C43.7372 38.0012 43.6161 37.8666 43.4789 37.7482C43.3389 37.6298 43.1748 37.541 42.9945 37.4737C42.8141 37.4064 42.6231 37.3768 42.4266 37.3768C42.066 37.3768 41.7592 37.4495 41.5063 37.5894C41.2533 37.7294 41.0515 37.9204 40.8927 38.1573C40.7366 38.3941 40.6236 38.6632 40.5509 38.9673C40.4783 39.2714 40.4433 39.5809 40.4433 39.9065C40.4433 40.2321 40.4783 40.5174 40.5509 40.8107C40.6236 41.104 40.7366 41.3677 40.8927 41.6019C41.0488 41.8333 41.2533 42.0244 41.5063 42.1643C41.7592 42.3043 42.0633 42.3769 42.4266 42.3769C42.9164 42.3769 43.2985 42.2262 43.5784 41.9221C43.8583 41.618 44.0225 41.2197 44.0844 40.7246H45.6398C45.5994 41.1848 45.4945 41.6019 45.325 41.9759C45.1554 42.3473 44.9267 42.6622 44.6468 42.9259C44.3669 43.1896 44.0359 43.3861 43.6645 43.526C43.2878 43.666 42.8787 43.7332 42.4239 43.7332C41.8669 43.7332 41.3583 43.6364 40.9142 43.4399C40.4702 43.2435 40.0934 42.9743 39.784 42.6299C39.4799 42.2827 39.2404 41.8818 39.0762 41.4162C38.912 40.9506 38.8286 40.4501 38.8286 39.9119C38.8286 39.3736 38.912 38.8462 39.0762 38.3779C39.2404 37.907 39.4745 37.4952 39.784 37.1427C40.0881 36.7902 40.4648 36.5184 40.9142 36.3165C41.3583 36.1147 41.8642 36.0178 42.4239 36.0178C42.8276 36.0178 43.2044 36.0743 43.565 36.1927C43.9202 36.3112 44.2431 36.4834 44.5257 36.7041C44.811 36.9274 45.0424 37.2046 45.2281 37.5356C45.4138 37.8666 45.5268 38.2434 45.5752 38.6713H44.0198C43.9929 38.4856 43.931 38.316 43.8341 38.1599V38.1573Z" fill="url(#paint15_linear_458_98257)"/>
<path d="M47.9787 36.1901V39.0211H50.9335V36.1901H52.5401V43.5691H50.9335V40.3855H47.9787V43.5691H46.3721V36.1901H47.9787Z" fill="url(#paint16_linear_458_98257)"/>
<path d="M53.5679 38.3752C53.7374 37.9043 53.9823 37.4926 54.3026 37.14C54.6228 36.7875 55.0157 36.5157 55.4813 36.3138C55.9468 36.112 56.4689 36.0151 57.0529 36.0151C57.6369 36.0151 58.1697 36.112 58.6299 36.3138C59.0901 36.5157 59.483 36.7902 59.8032 37.14C60.1235 37.4926 60.3657 37.9043 60.5379 38.3752C60.7074 38.8462 60.7908 39.3575 60.7908 39.9092C60.7908 40.4609 60.702 40.9479 60.5379 41.4135C60.3737 41.8791 60.1235 42.2827 59.8032 42.6272C59.483 42.9743 59.0954 43.2408 58.6299 43.4372C58.1643 43.6337 57.6422 43.7306 57.0529 43.7306C56.4635 43.7306 55.9468 43.6337 55.4813 43.4372C55.0157 43.2408 54.6228 42.9717 54.3026 42.6272C53.9823 42.28 53.7401 41.8791 53.5679 41.4135C53.3984 40.9479 53.3149 40.4474 53.3149 39.9092C53.3149 39.371 53.4037 38.8435 53.5679 38.3752ZM55.0965 40.8134C55.1691 41.1067 55.2875 41.3704 55.4517 41.6046C55.6158 41.836 55.8284 42.0271 56.0922 42.167C56.3559 42.307 56.6761 42.3796 57.0475 42.3796C57.4189 42.3796 57.7445 42.307 58.0029 42.167C58.2666 42.0271 58.4792 41.836 58.6433 41.6046C58.8075 41.3731 58.9286 41.1094 58.9986 40.8134C59.0712 40.5201 59.1116 40.2187 59.1116 39.9092C59.1116 39.5997 59.0766 39.2741 58.9986 38.97C58.9259 38.6659 58.8075 38.3968 58.6433 38.16C58.4792 37.9231 58.2666 37.7321 58.0029 37.5921C57.7391 37.4522 57.4189 37.3795 57.0475 37.3795C56.6761 37.3795 56.3505 37.4522 56.0922 37.5921C55.8284 37.7321 55.6158 37.9231 55.4517 38.16C55.2875 38.3968 55.1664 38.6659 55.0965 38.97C55.0238 39.2741 54.9834 39.5835 54.9834 39.9092C54.9834 40.2348 55.0184 40.5201 55.0965 40.8134Z" fill="url(#paint17_linear_458_98257)"/>
<path d="M63.1725 36.1901V43.5691H61.5659V36.1901H63.1725Z" fill="url(#paint18_linear_458_98257)"/>
<path d="M68.9557 38.1573C68.8588 38.0012 68.7377 37.8666 68.6004 37.7482C68.4605 37.6298 68.2963 37.541 68.116 37.4737C67.9357 37.4064 67.7447 37.3768 67.5482 37.3768C67.1876 37.3768 66.8808 37.4495 66.6279 37.5894C66.3749 37.7294 66.1731 37.9204 66.0143 38.1573C65.8582 38.3941 65.7452 38.6632 65.6725 38.9673C65.5998 39.2714 65.5649 39.5809 65.5649 39.9065C65.5649 40.2321 65.5998 40.5174 65.6725 40.8107C65.7452 41.104 65.8582 41.3677 66.0143 41.6019C66.1704 41.8333 66.3749 42.0244 66.6279 42.1643C66.8808 42.3043 67.1849 42.3769 67.5482 42.3769C68.038 42.3769 68.4201 42.2262 68.7 41.9221C68.9799 41.618 69.144 41.2197 69.2059 40.7246H70.7614C70.721 41.1848 70.6161 41.6019 70.4465 41.9759C70.277 42.3473 70.0483 42.6622 69.7684 42.9259C69.4885 43.1896 69.1575 43.3861 68.7861 43.526C68.4094 43.666 68.0003 43.7332 67.5455 43.7332C66.9885 43.7332 66.4798 43.6364 66.0358 43.4399C65.5918 43.2435 65.215 42.9743 64.9055 42.6299C64.6014 42.2827 64.3619 41.8818 64.1978 41.4162C64.0336 40.9506 63.9502 40.4501 63.9502 39.9119C63.9502 39.3736 64.0336 38.8462 64.1978 38.3779C64.3619 37.907 64.5961 37.4952 64.9055 37.1427C65.2096 36.7902 65.5864 36.5184 66.0358 36.3165C66.4798 36.1147 66.9858 36.0178 67.5455 36.0178C67.9492 36.0178 68.3259 36.0743 68.6865 36.1927C69.0418 36.3112 69.3647 36.4834 69.6473 36.7041C69.9325 36.9274 70.164 37.2046 70.3497 37.5356C70.5353 37.8666 70.6484 38.2434 70.6968 38.6713H69.1413C69.1144 38.4856 69.0525 38.316 68.9557 38.1599V38.1573Z" fill="url(#paint19_linear_458_98257)"/>
<path d="M76.9534 36.1901V37.5545H73.0998V39.1368H76.6386V40.3963H73.0998V42.2047H77.0369V43.5691H71.4932V36.1901H76.9534Z" fill="url(#paint20_linear_458_98257)"/>
<path d="M42.7576 58.572H39.7086C39.3668 58.572 39.0896 58.4939 38.8662 58.3352C38.6429 58.1737 38.4949 57.9746 38.4061 57.7243L37.405 54.7748H30.9678L29.9694 57.7243C29.8914 57.9423 29.7434 58.1387 29.5146 58.3136C29.2913 58.4886 29.0141 58.5774 28.6885 58.5774H25.6206L32.1761 41.6395H36.2021L42.7576 58.5774V58.572ZM31.8774 52.0972H36.5061L34.9507 47.4577C34.8484 47.1644 34.7327 46.8172 34.5955 46.4189C34.4555 46.0207 34.3263 45.5874 34.1918 45.1218C34.068 45.5981 33.9388 46.0314 33.8097 46.4351C33.6805 46.8388 33.5513 47.1886 33.4383 47.4846L31.8774 52.0999V52.0972Z" fill="url(#paint21_linear_458_98257)"/>
<path d="M40.1795 46.5186H43.0617C43.32 46.5186 43.538 46.5751 43.7237 46.6935C43.9094 46.8119 44.0224 46.9626 44.0601 47.1483L45.2684 52.552C45.3626 52.9665 45.4433 53.3621 45.5267 53.7496C45.6048 54.1371 45.6774 54.5192 45.7393 54.9014C45.847 54.5246 45.9627 54.1425 46.0811 53.755C46.1995 53.3728 46.3179 52.9692 46.4363 52.552L47.946 47.1375C47.9918 46.9572 48.1075 46.8119 48.2824 46.6881C48.4573 46.5697 48.6646 46.5078 48.896 46.5078H50.4972C50.7556 46.5078 50.9735 46.5697 51.1538 46.6881C51.3341 46.8065 51.4472 46.9572 51.4956 47.1375L52.938 52.552C53.0457 52.9665 53.156 53.3621 53.2691 53.7496C53.3821 54.1371 53.487 54.53 53.5893 54.9229C53.6512 54.5354 53.7292 54.1479 53.8153 53.7657C53.9042 53.3836 54.001 52.9745 54.1006 52.552L55.3762 47.1483C55.4166 46.9626 55.5269 46.8119 55.7072 46.6935C55.8875 46.5805 56.0947 46.5186 56.3262 46.5186H59.0711L55.3251 58.5721H52.3944C52.2384 58.5721 52.1038 58.5263 51.9962 58.4321C51.8885 58.3379 51.7997 58.1845 51.7432 57.9666L50.0236 51.9573C49.9455 51.6882 49.8729 51.4191 49.8002 51.1554C49.7329 50.8916 49.671 50.6279 49.6145 50.3642C49.5634 50.6387 49.5015 50.9078 49.4342 51.1715C49.3669 51.4406 49.2943 51.7097 49.2082 51.9788L47.4616 57.9666C47.3432 58.3702 47.0903 58.5721 46.692 58.5721H43.9013L40.1553 46.5186H40.1795Z" fill="url(#paint22_linear_458_98257)"/>
<path d="M67.5697 58.572C67.2279 58.572 66.9696 58.5263 66.7947 58.4321C66.6197 58.3379 66.4744 58.1415 66.3614 57.8535L66.103 57.1915C65.8043 57.4498 65.5083 57.6732 65.2311 57.8697C64.9512 58.0661 64.6633 58.2249 64.3619 58.3648C64.0632 58.5048 63.7483 58.6016 63.4119 58.6635C63.0755 58.7308 62.6988 58.7604 62.2897 58.7604C61.7381 58.7604 61.2402 58.6878 60.7908 58.5424C60.3414 58.3971 59.9592 58.1872 59.6444 57.9073C59.3295 57.6275 59.0873 57.283 58.9151 56.8632C58.7455 56.4488 58.6567 55.9697 58.6567 55.4207C58.6567 54.9929 58.7644 54.5515 58.9824 54.1021C59.2003 53.6527 59.5771 53.2383 60.1099 52.8723C60.6428 52.5063 61.3667 52.1941 62.2709 51.9465C63.1805 51.6989 64.3215 51.5752 65.7021 51.5752V51.0585C65.7021 50.3453 65.5567 49.834 65.2688 49.5138C64.9782 49.1935 64.5664 49.0374 64.0282 49.0374C63.6003 49.0374 63.2532 49.0832 62.9787 49.1774C62.7042 49.2716 62.4674 49.3738 62.2494 49.4922C62.0368 49.6053 61.8296 49.7156 61.6304 49.8071C61.4286 49.9013 61.1918 49.947 60.9119 49.947C60.6643 49.947 60.4517 49.8851 60.2768 49.7667C60.1019 49.6483 59.9673 49.4976 59.8624 49.3173L59.2111 48.1897C59.9404 47.5493 60.745 47.0675 61.6331 46.7527C62.5212 46.4378 63.4738 46.2817 64.4857 46.2817C65.215 46.2817 65.8716 46.4001 66.4556 46.637C67.0395 46.8738 67.5347 47.2048 67.9438 47.6246C68.3528 48.0471 68.6623 48.5503 68.8803 49.1289C69.0982 49.7075 69.2059 50.3426 69.2059 51.0342V58.5667H67.5589L67.5697 58.572ZM63.4308 56.3761C63.8963 56.3761 64.3027 56.2927 64.6498 56.1339C64.997 55.9697 65.3522 55.706 65.7101 55.3427V53.6904C64.9916 53.6904 64.3969 53.7361 63.934 53.8303C63.4684 53.9245 63.1025 54.0429 62.828 54.1828C62.5588 54.3228 62.3678 54.4816 62.2655 54.6645C62.1633 54.8449 62.1094 55.0413 62.1094 55.2485C62.1094 55.6629 62.2225 55.9563 62.4458 56.1204C62.6692 56.29 62.9975 56.3734 63.4335 56.3734L63.4308 56.3761Z" fill="url(#paint23_linear_458_98257)"/>
<path d="M70.3145 58.572V46.5186H72.4539C72.6288 46.5186 72.7795 46.5347 72.9033 46.5643C73.0217 46.5966 73.1267 46.6423 73.202 46.7096C73.2854 46.7769 73.3473 46.8657 73.3877 46.9734C73.4281 47.081 73.4657 47.2102 73.4953 47.3663L73.6918 48.4938C74.1358 47.813 74.631 47.2748 75.18 46.8765C75.7317 46.4782 76.3318 46.2817 76.983 46.2817C77.532 46.2817 77.976 46.4109 78.3071 46.6746L77.8415 49.3254C77.8092 49.4895 77.7473 49.6053 77.6558 49.6672C77.5616 49.7344 77.4378 49.764 77.2844 49.764C77.1499 49.764 76.9938 49.7479 76.8189 49.7129C76.6386 49.6779 76.4152 49.6618 76.1461 49.6618C75.2015 49.6618 74.4561 50.1677 73.9152 51.1769V58.572H70.3145Z" fill="url(#paint24_linear_458_98257)"/>
<path d="M87.1933 58.572C86.9672 58.572 86.7788 58.5209 86.6308 58.4213C86.4801 58.3244 86.3725 58.1683 86.3106 57.9665L86.0307 57.0461C85.7885 57.3045 85.5409 57.5305 85.2772 57.7431C85.0135 57.9557 84.7282 58.1307 84.4241 58.2867C84.12 58.4374 83.789 58.5558 83.4365 58.6339C83.0839 58.7173 82.7018 58.7577 82.2901 58.7577C81.6657 58.7577 81.0817 58.6177 80.5435 58.3379C80.0053 58.058 79.5451 57.657 79.1576 57.1296C78.7701 56.6021 78.466 55.9562 78.2426 55.192C78.0193 54.4277 77.9116 53.5585 77.9116 52.5816C77.9116 51.6828 78.0354 50.8458 78.283 50.0762C78.5306 49.3065 78.8831 48.6391 79.3379 48.0767C79.7927 47.5142 80.3363 47.0756 80.9714 46.758C81.6065 46.4432 82.3089 46.2817 83.0732 46.2817C83.6921 46.2817 84.2196 46.3759 84.6502 46.5562C85.078 46.7365 85.471 46.976 85.8181 47.2693V41.1659H89.4188V58.5693H87.1879L87.1933 58.572ZM83.5414 55.9885C83.8052 55.9885 84.042 55.9616 84.2546 55.9105C84.4672 55.8594 84.6636 55.7867 84.8439 55.6925C85.0188 55.5983 85.1911 55.4799 85.3499 55.3454C85.5113 55.2054 85.6647 55.0466 85.8208 54.8556V49.7398C85.5409 49.4411 85.2476 49.2285 84.9327 49.1047C84.6179 48.9809 84.2869 48.9244 83.9397 48.9244C83.5926 48.9244 83.2992 48.9916 83.0193 49.1208C82.7395 49.25 82.4973 49.4626 82.2901 49.7559C82.0828 50.0492 81.9241 50.4233 81.8083 50.8862C81.6953 51.3517 81.6334 51.9142 81.6334 52.5708C81.6334 53.2274 81.6792 53.7441 81.7734 54.1774C81.8676 54.6107 81.9967 54.9632 82.1609 55.2323C82.325 55.5014 82.5269 55.6925 82.761 55.8055C82.9924 55.9186 83.2508 55.9805 83.5414 55.9805V55.9885Z" fill="url(#paint25_linear_458_98257)"/>
<path d="M98.628 49.1531C98.5338 49.3038 98.4369 49.4061 98.3346 49.4679C98.2324 49.5298 98.0978 49.5621 97.931 49.5621C97.7668 49.5621 97.5892 49.5272 97.4196 49.4545C97.2501 49.3818 97.0644 49.2984 96.868 49.2177C96.6715 49.1342 96.4482 49.0535 96.2006 48.9809C95.953 48.9082 95.6677 48.8732 95.3529 48.8732C94.8981 48.8732 94.5455 48.962 94.298 49.1369C94.0504 49.3119 93.932 49.5568 93.932 49.8662C93.932 50.0923 94.01 50.2753 94.1688 50.4233C94.3303 50.574 94.5402 50.7032 94.8039 50.8108C95.0676 50.9185 95.3663 51.0288 95.6973 51.1311C96.0337 51.2333 96.3755 51.3437 96.72 51.4674C97.0671 51.5912 97.4062 51.7366 97.7426 51.9007C98.079 52.0649 98.3723 52.2721 98.636 52.5143C98.8998 52.7565 99.1124 53.0579 99.2711 53.4023C99.4326 53.7495 99.5079 54.172 99.5079 54.6591C99.5079 55.2538 99.4003 55.8055 99.1823 56.3061C98.9643 56.812 98.6387 57.2453 98.2108 57.6086C97.7829 57.9745 97.2501 58.2544 96.6204 58.4563C95.9907 58.6581 95.2614 58.755 94.4406 58.755C94.0315 58.755 93.6198 58.7146 93.2107 58.6366C92.7963 58.5585 92.4034 58.4563 92.0159 58.3217C91.6338 58.1925 91.2758 58.0311 90.9502 57.8508C90.6246 57.6705 90.3447 57.474 90.1133 57.2614L90.9502 55.9347C91.0471 55.7786 91.1736 55.6548 91.3108 55.5687C91.4508 55.4799 91.6311 55.4341 91.8598 55.4341C92.0724 55.4341 92.2581 55.4799 92.4223 55.5741C92.5864 55.6683 92.7694 55.7705 92.9659 55.8728C93.1623 55.9751 93.3857 56.08 93.6467 56.1715C93.9051 56.2657 94.2361 56.3114 94.629 56.3114C94.9088 56.3114 95.1457 56.2791 95.3367 56.2226C95.5332 56.1661 95.6839 56.0827 95.8023 55.9858C95.9153 55.8889 96.0041 55.7732 96.0606 55.6494C96.1118 55.5256 96.1441 55.3965 96.1441 55.2673C96.1441 55.0305 96.0606 54.8286 95.9019 54.6726C95.7404 54.5165 95.5251 54.3819 95.2614 54.2689C94.9976 54.1559 94.6989 54.0509 94.3625 53.954C94.0262 53.8571 93.6817 53.7468 93.3345 53.623C92.9874 53.4992 92.6429 53.3485 92.3065 53.1736C91.9701 52.9987 91.6714 52.7807 91.4077 52.5116C91.144 52.2425 90.9314 51.9169 90.7672 51.5293C90.6058 51.1418 90.525 50.6709 90.525 50.1246C90.525 49.6133 90.6219 49.1262 90.8184 48.6687C91.0148 48.2085 91.3135 47.7995 91.7064 47.455C92.0993 47.1078 92.5945 46.8307 93.1946 46.6234C93.7893 46.4162 94.4863 46.314 95.2883 46.314C95.7216 46.314 96.1414 46.3543 96.5477 46.427C96.9568 46.505 97.3389 46.6127 97.6941 46.7526C98.0494 46.8926 98.375 47.0567 98.671 47.2478C98.9643 47.4388 99.2227 47.6461 99.4514 47.8667L98.636 49.1316L98.628 49.1531Z" fill="url(#paint26_linear_458_98257)"/>
<path d="M73.038 75.561H33.2661V59.2072H34.1757V73.7257H73.038V75.561Z" fill="url(#paint27_linear_458_98257)"/>
<path d="M104.771 93.3251H124.933L115.862 78.2952L124.933 62.7998H104.771V93.3251Z" fill="url(#paint28_linear_458_98257)"/>
<path d="M114.072 67.3559L104.771 62.7998L104.777 67.3559H114.072Z" fill="url(#paint29_linear_458_98257)"/>
<path d="M21.0055 93.3251H0.84375L9.91817 78.2952L0.84375 62.7998H21.0055V93.3251Z" fill="url(#paint30_linear_458_98257)"/>
<path d="M11.7051 67.3559L21.0056 62.7998L21.0002 67.3559H11.7051Z" fill="url(#paint31_linear_458_98257)"/>
<path d="M97.0424 67.3208V70.5071H69.254V67.3208H11.6992V113.885H114.053V67.3208H97.0424Z" fill="url(#paint32_linear_458_98257)"/>
<path d="M34.0896 37.2423H33.2661V14.4163H90.5437V15.2532H34.0896V37.2423Z" fill="url(#paint33_linear_458_98257)"/>
<path d="M94.7686 16.4508H95.6781V44.6886H94.7686V16.4508Z" fill="url(#paint34_linear_458_98257)"/>
<path d="M107.22 9.27359L98.1164 9.21169L95.2423 0.578613L92.3682 9.21169L83.2642 9.27359L90.5921 14.672L87.839 23.3427L95.2423 18.0466L102.646 23.3427L99.8925 14.672L107.22 9.27359ZM97.6212 15.3932L98.2052 17.2366L96.6282 16.109L95.2423 15.116L93.8537 16.109L92.2767 17.2366L92.8607 15.3932L93.3774 13.7651L92.0022 12.7532L90.4467 11.6068L92.3843 11.5906L94.0905 11.5799L94.6287 9.96251L95.2423 8.12179L95.8559 9.96251L96.3941 11.5799L98.1003 11.5906L100.038 11.6068L98.4824 12.7532L97.1072 13.7651L97.6239 15.3932H97.6212Z" fill="url(#paint35_linear_458_98257)"/>
<path d="M100.784 6.12768C98.4585 8.35054 98.0387 7.68853 96.3083 6.11692C96.2868 6.10077 96.2679 6.12768 96.2814 6.14383C98.5042 8.46895 97.8369 8.878 96.2599 10.6138C96.2437 10.6353 96.2706 10.6541 96.2868 10.6407C98.6119 8.41782 99.0263 9.09059 100.757 10.6622C100.778 10.6783 100.797 10.6514 100.784 10.6353C98.5608 8.31017 99.2389 7.89036 100.811 6.15997C100.827 6.13845 100.8 6.11961 100.784 6.13306V6.12768Z" fill="url(#paint36_radial_458_98257)"/>
<path d="M37.3027 39.64C36.2639 41.9329 35.7687 41.5722 34.0464 40.9425C34.0249 40.9371 34.0141 40.9641 34.0357 40.9694C36.3285 42.0082 35.9625 42.5034 35.3274 44.2203C35.322 44.2418 35.3489 44.2526 35.3543 44.2311C36.3931 41.9382 36.8882 42.3042 38.6105 42.9393C38.6321 42.9447 38.6428 42.9178 38.6213 42.9124C36.3285 41.8737 36.6945 41.3731 37.3296 39.6508C37.335 39.6293 37.3081 39.6185 37.3027 39.64Z" fill="url(#paint37_radial_458_98257)"/>
<path d="M74.7066 62.6598C74.5263 62.4418 74.268 62.3342 73.9262 62.3342C73.4606 62.3342 73.1511 62.5037 72.9816 62.8509C72.8847 63.0473 72.8255 63.3676 72.8121 63.8009H71.3347C71.3616 63.1388 71.48 62.6114 71.6899 62.205C72.0989 61.43 72.8175 61.0479 73.8508 61.0479C74.6662 61.0479 75.3175 61.2739 75.8046 61.7287C76.289 62.1835 76.5339 62.7836 76.5339 63.5317C76.5339 64.105 76.3643 64.6109 76.0226 65.0603C75.7992 65.3536 75.4278 65.6846 74.9165 66.0479L74.3056 66.4812C73.9235 66.7503 73.6652 66.9468 73.5252 67.0706C73.3853 67.189 73.2669 67.3343 73.17 67.4931H76.55V68.8305H71.2485C71.2647 68.2789 71.3831 67.7649 71.6038 67.3074C71.8217 66.7907 72.3331 66.2417 73.1431 65.6685C73.8455 65.1679 74.2949 64.8046 74.5021 64.5894C74.8169 64.253 74.9784 63.8816 74.9784 63.4779C74.9784 63.1523 74.8842 62.8778 74.7039 62.6625L74.7066 62.6598Z" fill="url(#paint38_linear_458_98257)"/>
<path d="M79.997 69.0189C79.0093 69.0189 78.3177 68.6718 77.9248 67.9855C77.5319 67.2993 77.3301 66.3117 77.3301 65.0361C77.3301 63.7605 77.5265 62.7729 77.9248 62.0812C78.3231 61.3896 79.0147 61.0425 79.997 61.0425C80.9792 61.0425 81.6762 61.3896 82.0745 62.0812C82.4674 62.7729 82.6692 63.7605 82.6692 65.0361C82.6692 66.3117 82.4728 67.2993 82.0745 67.9855C81.6762 68.6718 80.9846 69.0189 80.0024 69.0189H79.997ZM80.8904 67.0733C81.0304 66.6023 81.0976 65.9268 81.0976 65.0334C81.0976 64.1399 81.025 63.4107 80.885 62.9612C80.7451 62.5118 80.4464 62.2885 79.997 62.2885C79.5476 62.2885 79.2488 62.5118 79.0981 62.9612C78.9528 63.4107 78.8802 64.0969 78.8802 65.0334C78.8802 65.9699 78.9528 66.605 79.0981 67.0733C79.2435 67.5442 79.5422 67.781 79.997 67.781C80.4518 67.781 80.7451 67.5442 80.8904 67.0679V67.0733Z" fill="url(#paint39_linear_458_98257)"/>
<path d="M86.8702 62.6598C86.6899 62.4418 86.4315 62.3342 86.0898 62.3342C85.6242 62.3342 85.3147 62.5037 85.1452 62.8509C85.0483 63.0473 84.9891 63.3676 84.9756 63.8009H83.4982C83.5251 63.1388 83.6435 62.6114 83.8535 62.205C84.2625 61.43 84.981 61.0479 86.0144 61.0479C86.8298 61.0479 87.4811 61.2739 87.9682 61.7287C88.4526 62.1835 88.6975 62.7836 88.6975 63.5317C88.6975 64.105 88.5279 64.6109 88.1861 65.0603C87.9628 65.3536 87.5914 65.6846 87.0801 66.0479L86.4692 66.4812C86.0871 66.7503 85.8287 66.9468 85.6888 67.0706C85.5489 67.189 85.4304 67.3343 85.3336 67.4931H88.7136V68.8305H83.4121C83.4283 68.2789 83.5467 67.7649 83.7673 67.3074C83.9853 66.7907 84.4966 66.2417 85.3067 65.6685C86.009 65.1679 86.4584 64.8046 86.6657 64.5894C86.9805 64.253 87.142 63.8816 87.142 63.4779C87.142 63.1523 87.0478 62.8778 86.8675 62.6625L86.8702 62.6598Z" fill="url(#paint40_linear_458_98257)"/>
<path d="M94.8681 65.9726V67.1621H93.9962V68.8252H92.508V67.1621H89.4429V65.8354L92.2901 61.1394H94.0016V65.9753H94.8735L94.8681 65.9726ZM90.5624 65.9726H92.5V62.6303L90.5624 65.9726Z" fill="url(#paint41_linear_458_98257)"/>
<path d="M44.6064 79.8184H45.6614C45.769 79.8184 45.8578 79.848 45.9305 79.9045C46.0004 79.9556 46.0516 80.0229 46.0812 80.109L47.2222 84.1241C47.2491 84.2264 47.276 84.3367 47.2976 84.4578C47.3191 84.5736 47.3406 84.6947 47.3621 84.8238C47.3891 84.6947 47.4187 84.5736 47.4483 84.4578C47.4752 84.3367 47.5075 84.2264 47.5451 84.1241L48.8584 80.109C48.8853 80.039 48.9364 79.9744 49.0091 79.9152C49.0791 79.8507 49.1706 79.8184 49.2782 79.8184H49.6442C49.7518 79.8184 49.8407 79.848 49.9133 79.9045C49.9833 79.9556 50.0344 80.0229 50.064 80.109L51.3773 84.1241C51.4419 84.326 51.4984 84.5493 51.5495 84.7915C51.571 84.6704 51.5926 84.5547 51.6141 84.4471C51.641 84.334 51.6679 84.2264 51.6894 84.1241L52.8305 80.109C52.852 80.031 52.8978 79.9637 52.9704 79.9045C53.0485 79.848 53.1426 79.8184 53.2503 79.8184H54.2299L52.1416 86.5461H51.0113L49.5473 81.9497C49.5258 81.8932 49.5043 81.8313 49.4827 81.7667C49.4612 81.6968 49.4424 81.6214 49.4289 81.5407C49.4074 81.6214 49.3859 81.6968 49.3643 81.7667C49.3482 81.8313 49.332 81.8932 49.3105 81.9497L47.825 86.5461H46.6947L44.6064 79.8184Z" fill="white"/>
<path d="M56.3747 86.5461H55.1152V79.8184H56.3747V86.5461Z" fill="white"/>
<path d="M58.5409 79.8184C58.5974 79.8184 58.6432 79.8237 58.6808 79.8291C58.7158 79.8372 58.7481 79.848 58.7777 79.8614C58.8046 79.8776 58.8342 79.8991 58.8638 79.926C58.8908 79.9475 58.923 79.9798 58.9607 80.0229L62.4915 84.5224C62.4753 84.4148 62.4645 84.3125 62.4592 84.2103C62.4592 84.1026 62.4592 84.003 62.4592 83.9088V79.8184H63.5571V86.5461H62.9113C62.809 86.5461 62.7283 86.5327 62.6637 86.5031C62.5991 86.4681 62.5345 86.4116 62.4699 86.3308L58.9607 81.8528C58.9661 81.9551 58.9715 82.0547 58.9715 82.1542C58.9769 82.2484 58.9823 82.3345 58.9823 82.4126V86.5461H57.8843V79.8184H58.5409Z" fill="white"/>
<path d="M65.5731 79.8184C65.6296 79.8184 65.6754 79.8237 65.7131 79.8291C65.7481 79.8372 65.7804 79.848 65.81 79.8614C65.8369 79.8776 65.8665 79.8991 65.8961 79.926C65.923 79.9475 65.9553 79.9798 65.9929 80.0229L69.5237 84.5224C69.5075 84.4148 69.4968 84.3125 69.4914 84.2103C69.4914 84.1026 69.4914 84.003 69.4914 83.9088V79.8184H70.5894V86.5461H69.9435C69.8412 86.5461 69.7605 86.5327 69.6959 86.5031C69.6313 86.4681 69.5667 86.4116 69.5022 86.3308L65.9929 81.8528C65.9983 81.9551 66.0037 82.0547 66.0037 82.1542C66.0091 82.2484 66.0145 82.3345 66.0145 82.4126V86.5461H64.9165V79.8184H65.5731Z" fill="white"/>
<path d="M76.1865 79.8184V80.8195H73.2048V82.6817H75.5514V83.6397H73.2048V85.545H76.1865V86.5461H71.9453V79.8184H76.1865Z" fill="white"/>
<path d="M78.5626 83.9196V86.5461H77.314V79.8184H79.3592C79.8167 79.8184 80.2123 79.8695 80.5433 79.9691C80.8716 80.0633 81.1407 80.1951 81.3506 80.3673C81.5578 80.5342 81.7085 80.7333 81.8027 80.9702C81.9023 81.207 81.9534 81.4707 81.9534 81.756C81.9534 81.9874 81.9211 82.2027 81.8566 82.4018C81.792 82.6037 81.6951 82.7867 81.5659 82.9508C81.4421 83.1177 81.2887 83.2603 81.103 83.3814C80.9147 83.5052 80.7048 83.6021 80.4679 83.672C80.624 83.7662 80.7613 83.8954 80.877 84.0595L82.567 86.5461H81.4367C81.3291 86.5461 81.2349 86.5246 81.1569 86.4815C81.0842 86.4385 81.0223 86.3793 80.9739 86.2986L79.553 84.1457C79.5018 84.0595 79.4453 84.003 79.3807 83.9734C79.3162 83.9384 79.222 83.9196 79.1009 83.9196H78.5626ZM78.5626 83.0262H79.3484C79.5853 83.0262 79.7898 82.9993 79.962 82.94C80.1342 82.8755 80.2769 82.7947 80.3926 82.6925C80.5056 82.5848 80.589 82.461 80.6402 82.3157C80.6967 82.1731 80.7263 82.0197 80.7263 81.8528C80.7263 81.5084 80.6133 81.2473 80.3926 81.067C80.1692 80.8813 79.8248 80.7872 79.3592 80.7872H78.5626V83.0262Z" fill="white"/>
<path d="M31.7672 95.3191C31.9529 95.3191 32.117 95.2922 32.2624 95.233C32.4131 95.1684 32.5368 95.0796 32.6391 94.9639C32.7468 94.8509 32.8248 94.7136 32.8759 94.5549C32.9324 94.3907 32.962 94.2077 32.962 94.0059V90.8734H33.9308V94.0059C33.9308 94.3153 33.8797 94.6033 33.7801 94.867C33.6779 95.1334 33.5352 95.3622 33.3496 95.5559C33.1612 95.7443 32.9324 95.8896 32.6606 95.9973C32.3942 96.1049 32.0955 96.1588 31.7672 96.1588C31.4281 96.1588 31.124 96.1049 30.8522 95.9973C30.5858 95.8896 30.3597 95.7443 30.1741 95.5559C29.9857 95.3622 29.843 95.1334 29.7435 94.867C29.6412 94.6033 29.5928 94.3153 29.5928 94.0059V90.8734H30.5723V94.0059C30.5723 94.2077 30.5966 94.3907 30.6477 94.5549C30.7042 94.7136 30.7822 94.8509 30.8845 94.9639C30.9841 95.0796 31.1052 95.1684 31.2505 95.233C31.4012 95.2922 31.5734 95.3191 31.7672 95.3191Z" fill="white"/>
<path d="M35.4298 90.8734C35.4728 90.8734 35.5078 90.8788 35.5374 90.8842C35.5724 90.8842 35.602 90.8923 35.6235 90.9057C35.645 90.9138 35.6666 90.9272 35.6881 90.9488C35.7096 90.9703 35.7339 90.9999 35.7635 91.0349L38.5084 94.5333C38.4922 94.4472 38.4815 94.3665 38.4761 94.2857C38.4761 94.1996 38.4761 94.1216 38.4761 94.0489V90.8734H39.3372V96.1049H38.8313C38.7587 96.1049 38.6941 96.0942 38.6376 96.0726C38.5864 96.0457 38.5407 96.0027 38.4976 95.9435L35.7635 92.4558C35.7688 92.5365 35.7742 92.6146 35.7742 92.6926C35.7796 92.7653 35.785 92.8325 35.785 92.8971V96.1049H34.9238V90.8734H35.4298Z" fill="white"/>
<path d="M41.4903 96.1049H40.5107V90.8734H41.4903V96.1049Z" fill="white"/>
<path d="M42.147 90.8734H42.9328C43.0189 90.8734 43.0862 90.8949 43.1373 90.938C43.1938 90.9811 43.2342 91.0349 43.2557 91.0995L44.4936 94.2857C44.5286 94.388 44.5636 94.501 44.6013 94.6302C44.6443 94.754 44.682 94.8832 44.7197 95.0177C44.7681 94.7459 44.8381 94.501 44.9242 94.2857L46.1513 91.0995C46.1729 91.043 46.2079 90.9918 46.259 90.9488C46.3155 90.9003 46.3882 90.8734 46.4743 90.8734H47.2493L45.1395 96.1049H44.2676L42.147 90.8734Z" fill="white"/>
<path d="M51.0947 90.8734V91.6485H48.7803V93.1017H50.6103V93.8444H48.7803V95.3299H51.0947V96.1049H47.8008V90.8734H51.0947Z" fill="white"/>
<path d="M52.941 94.0597V96.1049H51.9722V90.8734H53.5653C53.9232 90.8734 54.2273 90.9138 54.4803 90.9918C54.7386 91.0645 54.9458 91.1694 55.1046 91.304C55.2688 91.4332 55.3872 91.5919 55.4598 91.7776C55.5379 91.9579 55.5783 92.1598 55.5783 92.3804C55.5783 92.5527 55.5513 92.7195 55.5029 92.8756C55.4518 93.0344 55.3764 93.177 55.2769 93.3062C55.1827 93.4353 55.0643 93.5511 54.9216 93.6506C54.7763 93.7448 54.6121 93.8202 54.4265 93.8767C54.5476 93.9413 54.6552 94.0435 54.7494 94.1781L56.0519 96.1049H55.18C55.0939 96.1049 55.0212 96.0915 54.9647 96.0619C54.9055 96.0269 54.857 95.9758 54.814 95.9112L53.716 94.2319C53.6729 94.1754 53.6245 94.1323 53.5761 94.1027C53.533 94.0758 53.4604 94.0597 53.3608 94.0597H52.941ZM52.941 93.36H53.5545C53.7322 93.36 53.8909 93.3385 54.0282 93.2954C54.1627 93.2524 54.2758 93.1932 54.3619 93.1124C54.4534 93.0263 54.5233 92.9294 54.5664 92.8218C54.6095 92.7087 54.631 92.585 54.631 92.4558C54.631 92.1921 54.5395 91.9875 54.3619 91.8422C54.1896 91.6996 53.9232 91.6269 53.5653 91.6269H52.941V93.36Z" fill="white"/>
<path d="M59.4773 91.8314C59.4558 91.8826 59.4262 91.9176 59.3912 91.9391C59.3535 91.9606 59.3105 91.9714 59.262 91.9714C59.219 91.9714 59.1651 91.9552 59.1006 91.9176C59.0414 91.8826 58.9714 91.8422 58.8853 91.7991C58.8045 91.7507 58.7077 91.7076 58.5946 91.67C58.487 91.6269 58.3605 91.6054 58.2179 91.6054C58.0806 91.6054 57.9622 91.6242 57.8626 91.6592C57.7604 91.6888 57.6743 91.7346 57.6043 91.7991C57.5397 91.8583 57.4886 91.9256 57.4536 92.0037C57.4159 92.0844 57.3998 92.1732 57.3998 92.2728C57.3998 92.3966 57.4321 92.4961 57.4967 92.5742C57.5666 92.6549 57.6608 92.7249 57.7765 92.7895C57.8896 92.8487 58.0187 92.8971 58.1641 92.9402C58.3067 92.9832 58.4547 93.0344 58.6054 93.0909C58.7561 93.142 58.9014 93.2039 59.0467 93.2739C59.1974 93.3385 59.3266 93.4246 59.4343 93.5322C59.5473 93.6345 59.6388 93.7637 59.7034 93.9197C59.7733 94.0704 59.811 94.2534 59.811 94.4687C59.811 94.7055 59.7706 94.9289 59.6926 95.1361C59.6119 95.338 59.4935 95.5183 59.3374 95.6743C59.1867 95.825 58.9956 95.9435 58.7669 96.0296C58.5435 96.1157 58.2878 96.1587 58.0026 96.1587C57.8357 96.1587 57.6716 96.1399 57.5074 96.1049C57.3406 96.078 57.1845 96.035 57.0338 95.9757C56.8885 95.9192 56.7539 95.8466 56.6247 95.7605C56.4956 95.6743 56.3798 95.5828 56.2803 95.4806L56.5601 95.0069C56.5871 94.972 56.6194 94.9424 56.657 94.9208C56.692 94.8993 56.7351 94.8885 56.7862 94.8885C56.8427 94.8885 56.9073 94.9155 56.98 94.9639C57.0499 95.015 57.1334 95.0715 57.2275 95.1361C57.319 95.1953 57.4321 95.2491 57.5612 95.2976C57.6904 95.3406 57.8438 95.3622 58.0241 95.3622C58.304 95.3622 58.5193 95.2976 58.67 95.1684C58.8207 95.0392 58.896 94.8536 58.896 94.6087C58.896 94.466 58.8584 94.3503 58.7884 94.2642C58.7238 94.1781 58.6323 94.1081 58.5193 94.0489C58.4116 93.9924 58.2825 93.9413 58.1318 93.8982C57.9864 93.8552 57.8411 93.8121 57.6904 93.769C57.5451 93.7206 57.3998 93.6614 57.2491 93.5968C57.1038 93.5268 56.9746 93.4353 56.8616 93.3277C56.7539 93.2201 56.6624 93.0855 56.5924 92.9186C56.5279 92.7545 56.4956 92.5527 56.4956 92.3158C56.4956 92.1302 56.5305 91.9472 56.6032 91.7669C56.6812 91.5812 56.7916 91.4197 56.9369 91.2825C57.0795 91.1398 57.2598 91.0295 57.4751 90.9488C57.6904 90.8626 57.9326 90.8196 58.2071 90.8196C58.5139 90.8196 58.7992 90.8707 59.0575 90.9703C59.3158 91.0645 59.5365 91.1963 59.7249 91.3686L59.4773 91.8314Z" fill="white"/>
<path d="M61.6573 96.1049H60.6777V90.8734H61.6573V96.1049Z" fill="white"/>
<path d="M66.5119 90.8734V91.67H64.9403V96.1049H63.9715V91.67H62.3892V90.8734H66.5119Z" fill="white"/>
<path d="M69.4615 94.0705V96.1049H68.4927V94.0705L66.5874 90.8734H67.4378C67.5239 90.8734 67.5912 90.8949 67.6423 90.938C67.6908 90.9811 67.7338 91.0322 67.7715 91.0887L68.7295 92.8433C68.778 92.9456 68.8264 93.0424 68.8695 93.1339C68.9125 93.2281 68.9475 93.3169 68.9771 93.4031C69.0121 93.3169 69.0471 93.2281 69.0848 93.1339C69.1278 93.0424 69.1762 92.9456 69.2355 92.8433L70.1827 91.0887C70.2096 91.0403 70.25 90.9918 70.3011 90.9488C70.3496 90.9003 70.4195 90.8734 70.5057 90.8734H71.3668L69.4615 94.0705Z" fill="white"/>
<path d="M78.2829 93.4892C78.2829 93.8713 78.2183 94.2265 78.0892 94.5548C77.96 94.8858 77.7797 95.1684 77.5509 95.4052C77.3195 95.642 77.0396 95.8304 76.7113 95.965C76.3884 96.0942 76.0278 96.1587 75.6349 96.1587C75.2393 96.1587 74.876 96.0942 74.5477 95.965C74.2247 95.8304 73.9449 95.642 73.708 95.4052C73.4766 95.1684 73.299 94.8858 73.1698 94.5548C73.046 94.2265 72.9868 93.8713 72.9868 93.4892C72.9868 93.1097 73.046 92.7572 73.1698 92.4342C73.299 92.1059 73.4766 91.8207 73.708 91.5839C73.9449 91.3417 74.2247 91.1533 74.5477 91.0241C74.876 90.8895 75.2393 90.8196 75.6349 90.8196C76.0278 90.8196 76.3884 90.8895 76.7113 91.0241C77.0396 91.1533 77.3195 91.3417 77.5509 91.5839C77.7797 91.8207 77.96 92.1059 78.0892 92.4342C78.2183 92.7572 78.2829 93.1097 78.2829 93.4892ZM77.2818 93.4892C77.2818 93.2039 77.2415 92.9482 77.1634 92.7249C77.0908 92.4961 76.9831 92.3024 76.8405 92.1436C76.7032 91.9794 76.531 91.8583 76.3238 91.7776C76.122 91.6915 75.8932 91.6484 75.6349 91.6484C75.3819 91.6484 75.1532 91.6915 74.9459 91.7776C74.736 91.8583 74.5611 91.9794 74.4185 92.1436C74.2732 92.3024 74.1628 92.4961 74.0848 92.7249C74.0121 92.9482 73.9771 93.2039 73.9771 93.4892C73.9771 93.7771 74.0121 94.0355 74.0848 94.2642C74.1628 94.4956 74.2732 94.6894 74.4185 94.8455C74.5611 95.0043 74.736 95.1254 74.9459 95.2115C75.1532 95.2922 75.3819 95.3299 75.6349 95.3299C75.8932 95.3299 76.122 95.2922 76.3238 95.2115C76.531 95.1254 76.7032 95.0043 76.8405 94.8455C76.9831 94.6894 77.0908 94.4956 77.1634 94.2642C77.2415 94.0355 77.2818 93.7771 77.2818 93.4892Z" fill="white"/>
<path d="M82.3437 90.8734V91.6485H80.0294V93.1985H81.9885V93.9736H80.0294V96.1049H79.0498V90.8734H82.3437Z" fill="white"/>
<path d="M88.1892 90.8734V91.67H86.6176V96.1049H85.6488V91.67H84.0664V90.8734H88.1892Z" fill="white"/>
<path d="M93.224 96.1049H92.2444V93.8229H89.7901V96.1049H88.8105V90.8734H89.7901V93.1232H92.2444V90.8734H93.224V96.1049Z" fill="white"/>
<path d="M97.5727 90.8734V91.6485H95.2584V93.1017H97.0883V93.8444H95.2584V95.3299H97.5727V96.1049H94.2788V90.8734H97.5727Z" fill="white"/>
<path d="M57.1256 102.079V104.114H56.1568V102.079L54.2515 98.8822H55.1019C55.188 98.8822 55.2552 98.9037 55.3064 98.9468C55.3548 98.9898 55.3979 99.041 55.4356 99.0975L56.3936 100.852C56.442 100.954 56.4905 101.051 56.5335 101.143C56.5766 101.237 56.6116 101.326 56.6412 101.412C56.6762 101.326 56.7111 101.237 56.7488 101.143C56.7919 101.051 56.8403 100.954 56.8995 100.852L57.8468 99.0975C57.8737 99.0491 57.9141 99.0006 57.9652 98.9576C58.0136 98.9091 58.0836 98.8822 58.1697 98.8822H59.0309L57.1256 102.079Z" fill="white"/>
<path d="M62.8276 98.8822V99.6572H60.5133V101.11H62.3432V101.853H60.5133V103.339H62.8276V104.114H59.5337V98.8822H62.8276Z" fill="white"/>
<path d="M68.2723 104.114H67.5188C67.4326 104.114 67.36 104.092 67.3035 104.049C67.2523 104.006 67.2174 103.958 67.1958 103.898L66.8083 102.822H64.6339L64.2464 103.898C64.2248 103.95 64.1845 104.001 64.128 104.049C64.0768 104.092 64.0095 104.114 63.9234 104.114H63.1699L65.2259 98.8822H66.2163L68.2723 104.114ZM64.8922 102.144H66.5607L65.9149 100.4C65.8853 100.322 65.853 100.233 65.818 100.131C65.7884 100.023 65.7561 99.9102 65.7211 99.7864C65.6834 99.9102 65.6484 100.023 65.6134 100.131C65.5838 100.239 65.5542 100.333 65.5273 100.411L64.8922 102.144Z" fill="white"/>
<path d="M69.814 102.068V104.114H68.8452V98.8822H70.4384C70.7963 98.8822 71.1004 98.9226 71.3533 99.0006C71.6117 99.0733 71.8189 99.1782 71.9777 99.3128C72.1418 99.442 72.2602 99.6007 72.3329 99.7864C72.4109 99.9667 72.4513 100.169 72.4513 100.389C72.4513 100.561 72.4244 100.728 72.376 100.884C72.3248 101.043 72.2495 101.186 72.1499 101.315C72.0557 101.444 71.9373 101.56 71.7947 101.659C71.6494 101.754 71.4852 101.829 71.2995 101.885C71.4206 101.95 71.5283 102.052 71.6224 102.187L72.9249 104.114H72.053C71.9669 104.114 71.8942 104.1 71.8377 104.071C71.7785 104.036 71.7301 103.985 71.687 103.92L70.5891 102.241C70.546 102.184 70.4976 102.141 70.4491 102.112C70.4061 102.085 70.3334 102.068 70.2338 102.068H69.814ZM69.814 101.369H70.4276C70.6052 101.369 70.764 101.347 70.9012 101.304C71.0358 101.261 71.1488 101.202 71.2349 101.121C71.3264 101.035 71.3964 100.938 71.4394 100.831C71.4825 100.718 71.504 100.594 71.504 100.465C71.504 100.201 71.4125 99.9963 71.2349 99.851C71.0627 99.7084 70.7963 99.6357 70.4384 99.6357H69.814V101.369Z" fill="white"/>
<defs>
<linearGradient id="paint0_linear_458_98257" x1="38.4704" y1="22.4606" x2="46.0296" y2="22.4606" gradientUnits="userSpaceOnUse">
<stop stop-color="#D5A42B"/>
<stop offset="0.23" stop-color="#DAAF39"/>
<stop offset="0.66" stop-color="#E9CD60"/>
<stop offset="0.79" stop-color="#EED76D"/>
</linearGradient>
<linearGradient id="paint1_linear_458_98257" x1="46.6184" y1="22.4606" x2="51.4753" y2="22.4606" gradientUnits="userSpaceOnUse">
<stop stop-color="#D5A42B"/>
<stop offset="0.23" stop-color="#DAAF39"/>
<stop offset="0.66" stop-color="#E9CD60"/>
<stop offset="0.79" stop-color="#EED76D"/>
</linearGradient>
<linearGradient id="paint2_linear_458_98257" x1="52.0287" y1="22.4606" x2="57.6555" y2="22.4606" gradientUnits="userSpaceOnUse">
<stop stop-color="#D5A42B"/>
<stop offset="0.23" stop-color="#DAAF39"/>
<stop offset="0.66" stop-color="#E9CD60"/>
<stop offset="0.79" stop-color="#EED76D"/>
</linearGradient>
<linearGradient id="paint3_linear_458_98257" x1="56.9212" y1="22.4606" x2="61.6334" y2="22.4606" gradientUnits="userSpaceOnUse">
<stop stop-color="#D5A42B"/>
<stop offset="0.23" stop-color="#DAAF39"/>
<stop offset="0.66" stop-color="#E9CD60"/>
<stop offset="0.79" stop-color="#EED76D"/>
</linearGradient>
<linearGradient id="paint4_linear_458_98257" x1="62.2539" y1="22.5226" x2="67.1625" y2="22.5226" gradientUnits="userSpaceOnUse">
<stop stop-color="#D5A42B"/>
<stop offset="0.23" stop-color="#DAAF39"/>
<stop offset="0.66" stop-color="#E9CD60"/>
<stop offset="0.79" stop-color="#EED76D"/>
</linearGradient>
<linearGradient id="paint5_linear_458_98257" x1="67.7511" y1="22.4606" x2="72.6081" y2="22.4606" gradientUnits="userSpaceOnUse">
<stop stop-color="#D5A42B"/>
<stop offset="0.23" stop-color="#DAAF39"/>
<stop offset="0.66" stop-color="#E9CD60"/>
<stop offset="0.79" stop-color="#EED76D"/>
</linearGradient>
<linearGradient id="paint6_linear_458_98257" x1="73.1976" y1="22.4606" x2="74.4635" y2="22.4606" gradientUnits="userSpaceOnUse">
<stop stop-color="#D5A42B"/>
<stop offset="0.23" stop-color="#DAAF39"/>
<stop offset="0.66" stop-color="#E9CD60"/>
<stop offset="0.79" stop-color="#EED76D"/>
</linearGradient>
<linearGradient id="paint7_linear_458_98257" x1="75.1709" y1="22.3935" x2="79.1339" y2="22.3935" gradientUnits="userSpaceOnUse">
<stop stop-color="#D5A42B"/>
<stop offset="0.23" stop-color="#DAAF39"/>
<stop offset="0.66" stop-color="#E9CD60"/>
<stop offset="0.79" stop-color="#EED76D"/>
</linearGradient>
<linearGradient id="paint8_linear_458_98257" x1="38.6923" y1="31.0894" x2="44.903" y2="31.0894" gradientUnits="userSpaceOnUse">
<stop stop-color="#D5A42B"/>
<stop offset="0.23" stop-color="#DAAF39"/>
<stop offset="0.66" stop-color="#E9CD60"/>
<stop offset="0.79" stop-color="#EED76D"/>
</linearGradient>
<linearGradient id="paint9_linear_458_98257" x1="45.1098" y1="31.0946" x2="51.1551" y2="31.0946" gradientUnits="userSpaceOnUse">
<stop stop-color="#D5A42B"/>
<stop offset="0.23" stop-color="#DAAF39"/>
<stop offset="0.66" stop-color="#E9CD60"/>
<stop offset="0.79" stop-color="#EED76D"/>
</linearGradient>
<linearGradient id="paint10_linear_458_98257" x1="51.9096" y1="31.1772" x2="58.2029" y2="31.1772" gradientUnits="userSpaceOnUse">
<stop stop-color="#D5A42B"/>
<stop offset="0.23" stop-color="#DAAF39"/>
<stop offset="0.66" stop-color="#E9CD60"/>
<stop offset="0.79" stop-color="#EED76D"/>
</linearGradient>
<linearGradient id="paint11_linear_458_98257" x1="59.0401" y1="31.0946" x2="65.5711" y2="31.0946" gradientUnits="userSpaceOnUse">
<stop stop-color="#D5A42B"/>
<stop offset="0.23" stop-color="#DAAF39"/>
<stop offset="0.66" stop-color="#E9CD60"/>
<stop offset="0.79" stop-color="#EED76D"/>
</linearGradient>
<linearGradient id="paint12_linear_458_98257" x1="66.1083" y1="31.0946" x2="71.7092" y2="31.0946" gradientUnits="userSpaceOnUse">
<stop stop-color="#D5A42B"/>
<stop offset="0.23" stop-color="#DAAF39"/>
<stop offset="0.66" stop-color="#E9CD60"/>
<stop offset="0.79" stop-color="#EED76D"/>
</linearGradient>
<linearGradient id="paint13_linear_458_98257" x1="72.2879" y1="31.0946" x2="78.5192" y2="31.0946" gradientUnits="userSpaceOnUse">
<stop stop-color="#D5A42B"/>
<stop offset="0.23" stop-color="#DAAF39"/>
<stop offset="0.66" stop-color="#E9CD60"/>
<stop offset="0.79" stop-color="#EED76D"/>
</linearGradient>
<linearGradient id="paint14_linear_458_98257" x1="79.1704" y1="31.0946" x2="85.2157" y2="31.0946" gradientUnits="userSpaceOnUse">
<stop stop-color="#D5A42B"/>
<stop offset="0.23" stop-color="#DAAF39"/>
<stop offset="0.66" stop-color="#E9CD60"/>
<stop offset="0.79" stop-color="#EED76D"/>
</linearGradient>
<linearGradient id="paint15_linear_458_98257" x1="38.8321" y1="39.8732" x2="45.6369" y2="39.8732" gradientUnits="userSpaceOnUse">
<stop stop-color="#D5A42B"/>
<stop offset="0.23" stop-color="#DAAF39"/>
<stop offset="0.66" stop-color="#E9CD60"/>
<stop offset="0.79" stop-color="#EED76D"/>
</linearGradient>
<linearGradient id="paint16_linear_458_98257" x1="46.3709" y1="39.8784" x2="52.5402" y2="39.8784" gradientUnits="userSpaceOnUse">
<stop stop-color="#D5A42B"/>
<stop offset="0.23" stop-color="#DAAF39"/>
<stop offset="0.66" stop-color="#E9CD60"/>
<stop offset="0.79" stop-color="#EED76D"/>
</linearGradient>
<linearGradient id="paint17_linear_458_98257" x1="53.315" y1="39.8732" x2="60.7864" y2="39.8732" gradientUnits="userSpaceOnUse">
<stop stop-color="#D5A42B"/>
<stop offset="0.23" stop-color="#DAAF39"/>
<stop offset="0.66" stop-color="#E9CD60"/>
<stop offset="0.79" stop-color="#EED76D"/>
</linearGradient>
<linearGradient id="paint18_linear_458_98257" x1="61.5667" y1="39.8784" x2="63.1736" y2="39.8784" gradientUnits="userSpaceOnUse">
<stop stop-color="#D5A42B"/>
<stop offset="0.23" stop-color="#DAAF39"/>
<stop offset="0.66" stop-color="#E9CD60"/>
<stop offset="0.79" stop-color="#EED76D"/>
</linearGradient>
<linearGradient id="paint19_linear_458_98257" x1="63.9486" y1="39.8732" x2="70.7534" y2="39.8732" gradientUnits="userSpaceOnUse">
<stop stop-color="#D5A42B"/>
<stop offset="0.23" stop-color="#DAAF39"/>
<stop offset="0.66" stop-color="#E9CD60"/>
<stop offset="0.79" stop-color="#EED76D"/>
</linearGradient>
<linearGradient id="paint20_linear_458_98257" x1="71.4921" y1="39.8784" x2="77.0362" y2="39.8784" gradientUnits="userSpaceOnUse">
<stop stop-color="#D5A42B"/>
<stop offset="0.23" stop-color="#DAAF39"/>
<stop offset="0.66" stop-color="#E9CD60"/>
<stop offset="0.79" stop-color="#EED76D"/>
</linearGradient>
<linearGradient id="paint21_linear_458_98257" x1="25.6253" y1="50.1037" x2="42.7589" y2="50.1037" gradientUnits="userSpaceOnUse">
<stop stop-color="#D5A42B"/>
<stop offset="0.23" stop-color="#DAAF39"/>
<stop offset="0.66" stop-color="#E9CD60"/>
<stop offset="0.79" stop-color="#EED76D"/>
</linearGradient>
<linearGradient id="paint22_linear_458_98257" x1="40.1806" y1="52.5374" x2="59.0812" y2="52.5374" gradientUnits="userSpaceOnUse">
<stop stop-color="#D5A42B"/>
<stop offset="0.23" stop-color="#DAAF39"/>
<stop offset="0.66" stop-color="#E9CD60"/>
<stop offset="0.79" stop-color="#EED76D"/>
</linearGradient>
<linearGradient id="paint23_linear_458_98257" x1="58.6628" y1="52.5219" x2="69.2188" y2="52.5219" gradientUnits="userSpaceOnUse">
<stop stop-color="#D5A42B"/>
<stop offset="0.23" stop-color="#DAAF39"/>
<stop offset="0.66" stop-color="#E9CD60"/>
<stop offset="0.79" stop-color="#EED76D"/>
</linearGradient>
<linearGradient id="paint24_linear_458_98257" x1="70.314" y1="52.4289" x2="78.3124" y2="52.4289" gradientUnits="userSpaceOnUse">
<stop stop-color="#D5A42B"/>
<stop offset="0.23" stop-color="#DAAF39"/>
<stop offset="0.66" stop-color="#E9CD60"/>
<stop offset="0.79" stop-color="#EED76D"/>
</linearGradient>
<linearGradient id="paint25_linear_458_98257" x1="77.9147" y1="49.9642" x2="89.4267" y2="49.9642" gradientUnits="userSpaceOnUse">
<stop stop-color="#D5A42B"/>
<stop offset="0.23" stop-color="#DAAF39"/>
<stop offset="0.66" stop-color="#E9CD60"/>
<stop offset="0.79" stop-color="#EED76D"/>
</linearGradient>
<linearGradient id="paint26_linear_458_98257" x1="90.1192" y1="52.5425" x2="99.5127" y2="52.5425" gradientUnits="userSpaceOnUse">
<stop stop-color="#D5A42B"/>
<stop offset="0.23" stop-color="#DAAF39"/>
<stop offset="0.66" stop-color="#E9CD60"/>
<stop offset="0.79" stop-color="#EED76D"/>
</linearGradient>
<linearGradient id="paint27_linear_458_98257" x1="33.2673" y1="65.4043" x2="73.0372" y2="65.4043" gradientUnits="userSpaceOnUse">
<stop stop-color="#D5A42B"/>
<stop offset="0.08" stop-color="#DAAF39"/>
<stop offset="0.22" stop-color="#E9CD60"/>
<stop offset="0.26" stop-color="#EED76D"/>
<stop offset="0.52" stop-color="#F8AE2A"/>
<stop offset="0.66" stop-color="#F5BB38"/>
<stop offset="0.88" stop-color="#F1D758"/>
<stop offset="1" stop-color="#D5A42B"/>
</linearGradient>
<linearGradient id="paint28_linear_458_98257" x1="104.772" y1="78.0621" x2="124.934" y2="78.0621" gradientUnits="userSpaceOnUse">
<stop stop-color="#D5A42B"/>
<stop offset="0.08" stop-color="#DAAF39"/>
<stop offset="0.22" stop-color="#E9CD60"/>
<stop offset="0.26" stop-color="#EED76D"/>
<stop offset="0.52" stop-color="#F8AE2A"/>
<stop offset="0.66" stop-color="#F5BB38"/>
<stop offset="0.88" stop-color="#F1D758"/>
<stop offset="1" stop-color="#D5A42B"/>
</linearGradient>
<linearGradient id="paint29_linear_458_98257" x1="104.772" y1="65.0776" x2="114.073" y2="65.0776" gradientUnits="userSpaceOnUse">
<stop stop-color="#D5A42B"/>
<stop offset="0.08" stop-color="#DAAF39"/>
<stop offset="0.22" stop-color="#E9CD60"/>
<stop offset="0.26" stop-color="#EED76D"/>
<stop offset="0.52" stop-color="#F8AE2A"/>
<stop offset="0.66" stop-color="#F5BB38"/>
<stop offset="0.88" stop-color="#F1D758"/>
<stop offset="1" stop-color="#D5A42B"/>
</linearGradient>
<linearGradient id="paint30_linear_458_98257" x1="21.0063" y1="78.0621" x2="0.844935" y2="78.0621" gradientUnits="userSpaceOnUse">
<stop stop-color="#D5A42B"/>
<stop offset="0.08" stop-color="#DAAF39"/>
<stop offset="0.22" stop-color="#E9CD60"/>
<stop offset="0.26" stop-color="#EED76D"/>
<stop offset="0.52" stop-color="#F8AE2A"/>
<stop offset="0.66" stop-color="#F5BB38"/>
<stop offset="0.88" stop-color="#F1D758"/>
<stop offset="1" stop-color="#D5A42B"/>
</linearGradient>
<linearGradient id="paint31_linear_458_98257" x1="11.7058" y1="65.0776" x2="21.0063" y2="65.0776" gradientUnits="userSpaceOnUse">
<stop stop-color="#D5A42B"/>
<stop offset="0.08" stop-color="#DAAF39"/>
<stop offset="0.22" stop-color="#E9CD60"/>
<stop offset="0.26" stop-color="#EED76D"/>
<stop offset="0.52" stop-color="#F8AE2A"/>
<stop offset="0.66" stop-color="#F5BB38"/>
<stop offset="0.88" stop-color="#F1D758"/>
<stop offset="1" stop-color="#D5A42B"/>
</linearGradient>
<linearGradient id="paint32_linear_458_98257" x1="11.7002" y1="90.6021" x2="114.052" y2="90.6021" gradientUnits="userSpaceOnUse">
<stop stop-color="#D5A42B"/>
<stop offset="0.08" stop-color="#DAAF39"/>
<stop offset="0.22" stop-color="#E9CD60"/>
<stop offset="0.26" stop-color="#EED76D"/>
<stop offset="0.52" stop-color="#F8AE2A"/>
<stop offset="0.66" stop-color="#F5BB38"/>
<stop offset="0.88" stop-color="#F1D758"/>
<stop offset="1" stop-color="#D5A42B"/>
</linearGradient>
<linearGradient id="paint33_linear_458_98257" x1="33.3768" y1="25.6385" x2="90.9438" y2="25.6385" gradientUnits="userSpaceOnUse">
<stop stop-color="#D5A42B"/>
<stop offset="0.08" stop-color="#DAAF39"/>
<stop offset="0.22" stop-color="#E9CD60"/>
<stop offset="0.26" stop-color="#EED76D"/>
<stop offset="0.52" stop-color="#F8AE2A"/>
<stop offset="0.66" stop-color="#F5BB38"/>
<stop offset="0.88" stop-color="#F1D758"/>
<stop offset="1" stop-color="#D5A42B"/>
</linearGradient>
<linearGradient id="paint34_linear_458_98257" x1="94.7691" y1="30.227" x2="95.6785" y2="30.227" gradientUnits="userSpaceOnUse">
<stop stop-color="#D5A42B"/>
<stop offset="0.08" stop-color="#DAAF39"/>
<stop offset="0.22" stop-color="#E9CD60"/>
<stop offset="0.26" stop-color="#EED76D"/>
<stop offset="0.52" stop-color="#F8AE2A"/>
<stop offset="0.66" stop-color="#F5BB38"/>
<stop offset="0.88" stop-color="#F1D758"/>
<stop offset="1" stop-color="#D5A42B"/>
</linearGradient>
<linearGradient id="paint35_linear_458_98257" x1="83.2624" y1="11.9615" x2="107.222" y2="11.9615" gradientUnits="userSpaceOnUse">
<stop stop-color="#D5A42B"/>
<stop offset="0.08" stop-color="#DAAF39"/>
<stop offset="0.22" stop-color="#E9CD60"/>
<stop offset="0.26" stop-color="#EED76D"/>
<stop offset="0.52" stop-color="#F8AE2A"/>
<stop offset="0.66" stop-color="#F5BB38"/>
<stop offset="0.88" stop-color="#F1D758"/>
<stop offset="1" stop-color="#D5A42B"/>
</linearGradient>
<radialGradient id="paint36_radial_458_98257" cx="0" cy="0" r="1" gradientUnits="userSpaceOnUse" gradientTransform="translate(98.5381 8.38408) rotate(45) scale(3.19833)">
<stop stop-color="#F2F2F2"/>
<stop offset="1" stop-color="#E7E7E7"/>
</radialGradient>
<radialGradient id="paint37_radial_458_98257" cx="0" cy="0" r="1" gradientUnits="userSpaceOnUse" gradientTransform="translate(36.3981 41.8516) rotate(23.07) scale(2.50596)">
<stop stop-color="#F2F2F2"/>
<stop offset="1" stop-color="#E7E7E7"/>
</radialGradient>
<linearGradient id="paint38_linear_458_98257" x1="71.2495" y1="65.0259" x2="94.8676" y2="65.0259" gradientUnits="userSpaceOnUse">
<stop stop-color="#D5A42B"/>
<stop offset="0.08" stop-color="#DAAF39"/>
<stop offset="0.22" stop-color="#E9CD60"/>
<stop offset="0.26" stop-color="#EED76D"/>
<stop offset="0.52" stop-color="#F8AE2A"/>
<stop offset="0.66" stop-color="#F5BB38"/>
<stop offset="0.88" stop-color="#F1D758"/>
<stop offset="1" stop-color="#D5A42B"/>
</linearGradient>
<linearGradient id="paint39_linear_458_98257" x1="71.2491" y1="65.0259" x2="94.8672" y2="65.0259" gradientUnits="userSpaceOnUse">
<stop stop-color="#D5A42B"/>
<stop offset="0.08" stop-color="#DAAF39"/>
<stop offset="0.22" stop-color="#E9CD60"/>
<stop offset="0.26" stop-color="#EED76D"/>
<stop offset="0.52" stop-color="#F8AE2A"/>
<stop offset="0.66" stop-color="#F5BB38"/>
<stop offset="0.88" stop-color="#F1D758"/>
<stop offset="1" stop-color="#D5A42B"/>
</linearGradient>
<linearGradient id="paint40_linear_458_98257" x1="71.2493" y1="65.0259" x2="94.8673" y2="65.0259" gradientUnits="userSpaceOnUse">
<stop stop-color="#D5A42B"/>
<stop offset="0.08" stop-color="#DAAF39"/>
<stop offset="0.22" stop-color="#E9CD60"/>
<stop offset="0.26" stop-color="#EED76D"/>
<stop offset="0.52" stop-color="#F8AE2A"/>
<stop offset="0.66" stop-color="#F5BB38"/>
<stop offset="0.88" stop-color="#F1D758"/>
<stop offset="1" stop-color="#D5A42B"/>
</linearGradient>
<linearGradient id="paint41_linear_458_98257" x1="71.2492" y1="65.0259" x2="94.8673" y2="65.0259" gradientUnits="userSpaceOnUse">
<stop stop-color="#D5A42B"/>
<stop offset="0.08" stop-color="#DAAF39"/>
<stop offset="0.22" stop-color="#E9CD60"/>
<stop offset="0.26" stop-color="#EED76D"/>
<stop offset="0.52" stop-color="#F8AE2A"/>
<stop offset="0.66" stop-color="#F5BB38"/>
<stop offset="0.88" stop-color="#F1D758"/>
<stop offset="1" stop-color="#D5A42B"/>
</linearGradient>
</defs>
</svg>
